<svg xmlns="http://www.w3.org/2000/svg" xmlns:xlink="http://www.w3.org/1999/xlink" width="750" zoomAndPan="magnify" viewBox="0 0 562.5 562.499982" height="750" preserveAspectRatio="xMidYMid meet" version="1.0"><defs><clipPath id="a8734a6b20"><path d="M 235 356 L 539.398438 356 L 539.398438 551 L 235 551 Z M 235 356 " clip-rule="nonzero"/></clipPath></defs><path fill="#ffffff" d="M 324.824219 379.808594 C 328.640625 379.632812 332.476562 379.4375 336.296875 379.226562 C 339.238281 379.078125 343.722656 379.710938 346.519531 378.609375 C 349.3125 377.503906 350.839844 373.847656 352.433594 371.410156 C 354.773438 367.800781 357.074219 364.167969 359.339844 360.503906 C 377.945312 330.132812 392.230469 297.746094 404.386719 264.332031 C 404.457031 264.066406 404.496094 263.796875 404.507812 263.523438 C 404.515625 263.25 404.492188 262.976562 404.441406 262.710938 C 404.386719 262.441406 404.304688 262.179688 404.191406 261.929688 C 404.078125 261.679688 403.9375 261.445312 403.773438 261.230469 C 403.605469 261.011719 403.417969 260.8125 403.207031 260.640625 C 402.996094 260.464844 402.765625 260.316406 402.519531 260.191406 C 402.277344 260.070312 402.019531 259.976562 401.753906 259.914062 C 401.484375 259.851562 401.214844 259.816406 400.941406 259.816406 C 362.605469 260.171875 322.9375 260.59375 286.210938 247.953125 C 266.855469 241.273438 250.914062 230.15625 234.714844 217.921875 C 219.519531 206.464844 202.765625 195.316406 183.148438 194.179688 C 161.210938 192.910156 138.523438 212.054688 117.074219 201.960938 C 116.792969 201.832031 116.503906 201.742188 116.195312 201.703125 C 115.808594 201.449219 115.382812 201.332031 114.917969 201.355469 C 114.457031 201.375 114.042969 201.527344 113.675781 201.816406 C 105.632812 207.894531 99.050781 216.539062 92.277344 223.964844 C 84.71875 232.253906 77.210938 240.589844 69.6875 248.894531 C 55.222656 264.851562 40.191406 280.484375 26.332031 296.980469 C 23.925781 297.972656 22.398438 301.09375 24.882812 303.316406 C 34.632812 312.042969 47.636719 312.875 60.164062 310.859375 C 67.851562 309.625 75.359375 307.347656 83.09375 306.503906 C 87.34375 306.078125 91.585938 306.132812 95.820312 306.671875 C 100.054688 307.207031 104.175781 308.214844 108.183594 309.6875 C 137.4375 319.992188 157.765625 346.21875 185.441406 359.789062 C 212.710938 373.148438 243.050781 378.65625 273.195312 380.199219 C 290.386719 381.0625 307.613281 380.605469 324.824219 379.808594 Z M 369.007812 284.761719 C 361.71875 301.589844 353.226562 317.785156 343.527344 333.347656 C 339.140625 340.386719 333.582031 353.433594 324.515625 354.574219 C 315.074219 355.757812 304.753906 354.492188 295.261719 354.167969 C 260.421875 352.929688 226.75 348.59375 195.808594 333.039062 C 213.230469 329.675781 229.300781 321.308594 238.855469 308.664062 C 247.925781 296.703125 253.320312 280.566406 255.773438 265.875 C 256.082031 264.007812 256.328125 262.105469 256.488281 260.1875 C 289.152344 280.972656 331.191406 283.152344 369.007812 284.761719 Z M 244.640625 234.007812 C 254.390625 254.078125 248.414062 278.535156 238.042969 297.628906 C 227.449219 317.132812 206.355469 325.90625 185.050781 327.464844 C 163.324219 329.089844 139.175781 323.257812 128.335938 302.457031 C 117.660156 281.996094 128.644531 255.6875 141.921875 239.078125 C 157.179688 219.984375 178.808594 209.828125 202.472656 206.496094 C 211.164062 210.375 219.289062 215.207031 226.847656 220.992188 C 232.796875 225.414062 238.660156 229.816406 244.640625 234.007812 Z M 117.269531 286.335938 C 98.566406 281.625 79.40625 289.796875 60.390625 287.847656 C 74.105469 271.058594 87.9375 254.339844 103 238.738281 C 106.867188 234.757812 110.769531 230.125 115.578125 227.25 C 120.390625 224.371094 126.582031 223.640625 132.285156 222.78125 C 138.589844 221.851562 145.121094 221.15625 151.574219 220.113281 C 147.269531 223.546875 143.3125 227.339844 139.695312 231.488281 C 127.164062 245.628906 116.375 266.476562 117.269531 286.335938 Z M 98.660156 298.945312 C 87.011719 297.09375 76.007812 299.53125 64.648438 301.921875 C 54.425781 304.050781 42.46875 305.65625 33.335938 299.777344 C 47.601562 284.953125 61.042969 269.242188 74.820312 253.980469 C 82.089844 245.953125 89.351562 237.925781 96.597656 229.898438 C 102.902344 222.894531 110.394531 215.890625 115.773438 208.007812 C 132.917969 216.34375 150.597656 207.210938 167.777344 203.003906 C 174.738281 201.277344 181.746094 201.054688 188.804688 202.335938 C 179.828125 204.257812 171.363281 207.507812 163.40625 212.085938 C 152.453125 212.234375 141.238281 214.703125 130.496094 216.296875 C 125.117188 217.09375 119.707031 217.773438 114.71875 220.097656 C 109.730469 222.421875 105.910156 226.191406 102.140625 229.980469 C 84.035156 248.128906 67.800781 268.039062 51.601562 287.863281 C 50.105469 289.699219 50.382812 292.984375 53.109375 293.566406 C 74.414062 298.183594 97.734375 286.011719 118.242188 293.910156 C 118.667969 295.84375 119.210938 297.746094 119.871094 299.613281 C 120.847656 302.433594 122.078125 305.144531 123.558594 307.738281 C 115.742188 303.390625 107.429688 300.460938 98.613281 298.945312 Z M 158.609375 332.324219 C 167.101562 334.382812 175.703125 335.105469 184.417969 334.503906 C 218.089844 357.824219 262.421875 361.316406 302.152344 362 C 311.042969 362.160156 322.695312 364.257812 331.113281 360.601562 C 339.238281 357.109375 343.867188 346.917969 348.289062 339.867188 C 359.757812 321.5 369.652344 302.316406 377.964844 282.320312 C 378.9375 280.015625 376.550781 277.804688 374.453125 277.707031 C 353 276.796875 331.4375 275.953125 310.277344 271.988281 C 291.472656 268.433594 273.648438 262.109375 256.8125 253.007812 C 256.757812 248.9375 256.214844 244.933594 255.1875 240.996094 C 262.421875 245.574219 270.003906 249.460938 277.941406 252.664062 C 295.589844 259.636719 314.359375 263.261719 333.191406 265.226562 C 354.007812 267.402344 374.957031 267.386719 395.871094 267.046875 C 382.480469 303.480469 364.117188 338.320312 343.285156 371.050781 C 298.660156 373.390625 252.28125 374.96875 209.425781 360.488281 C 190.398438 354.054688 174.277344 344.089844 158.5625 332.324219 Z M 158.609375 332.324219 " fill-opacity="1" fill-rule="nonzero"/><path fill="#ffffff" d="M 209.214844 219.007812 L 202.714844 230.742188 C 198.90625 229.023438 194.925781 227.941406 190.769531 227.492188 C 188.355469 227.203125 185.945312 227.257812 183.542969 227.644531 C 181.136719 228.035156 178.835938 228.746094 176.632812 229.785156 C 174.660156 230.769531 172.882812 232.03125 171.296875 233.5625 C 169.710938 235.097656 168.390625 236.832031 167.335938 238.769531 C 165.476562 241.8125 164.539062 245.117188 164.527344 248.683594 C 164.605469 251.734375 165.363281 254.605469 166.800781 257.296875 C 168.296875 260.042969 170.105469 262.558594 172.230469 264.851562 C 174.382812 267.203125 176.65625 269.429688 179.054688 271.53125 C 179.265625 271.695312 179.460938 271.871094 179.65625 272.050781 L 172.519531 284.664062 C 169.863281 282.832031 167.425781 280.738281 165.207031 278.390625 C 162.199219 275.242188 159.644531 271.765625 157.539062 267.957031 L 143.660156 278.355469 C 146.105469 282.910156 149.222656 286.945312 153.003906 290.464844 C 156.480469 293.824219 160.273438 296.773438 164.378906 299.320312 L 157.878906 310.859375 L 165.808594 315.292969 L 172.308594 303.675781 C 176.492188 305.691406 180.890625 306.941406 185.503906 307.429688 C 187.925781 307.707031 190.332031 307.644531 192.734375 307.242188 C 195.136719 306.839844 197.433594 306.109375 199.628906 305.058594 C 201.578125 304.085938 203.339844 302.84375 204.914062 301.335938 C 206.488281 299.828125 207.800781 298.121094 208.859375 296.214844 C 210.667969 293.21875 211.601562 289.96875 211.652344 286.464844 C 211.597656 283.425781 210.851562 280.566406 209.410156 277.886719 C 207.9375 275.140625 206.128906 272.636719 203.984375 270.378906 C 201.804688 268.050781 199.511719 265.839844 197.109375 263.746094 L 195.484375 262.285156 L 202.585938 249.5625 C 204.792969 251.023438 206.832031 252.683594 208.710938 254.550781 C 211.460938 257.300781 213.871094 260.324219 215.941406 263.617188 L 229.496094 252.910156 C 227.078125 248.949219 224.136719 245.429688 220.671875 242.34375 C 217.601562 239.5625 214.292969 237.097656 210.742188 234.953125 L 217.164062 223.460938 Z M 186.496094 252.8125 C 186.054688 252.113281 185.820312 251.351562 185.800781 250.527344 C 185.78125 249.703125 185.972656 248.929688 186.382812 248.210938 C 187.003906 247.070312 187.914062 246.253906 189.113281 245.757812 C 190.625 245.238281 192.15625 245.164062 193.710938 245.53125 L 194.328125 245.675781 L 188.675781 255.816406 C 187.839844 254.894531 187.113281 253.890625 186.496094 252.8125 Z M 189.585938 282.550781 C 189.769531 282.855469 189.917969 283.175781 190.027344 283.515625 C 190.140625 283.851562 190.210938 284.199219 190.246094 284.554688 C 190.28125 284.90625 190.273438 285.261719 190.226562 285.613281 C 190.179688 285.96875 190.097656 286.3125 189.972656 286.644531 C 189.851562 286.980469 189.691406 287.296875 189.496094 287.59375 C 189.300781 287.890625 189.078125 288.164062 188.820312 288.410156 C 188.566406 288.660156 188.285156 288.875 187.980469 289.058594 C 187.675781 289.246094 187.355469 289.394531 187.015625 289.503906 C 185.511719 289.914062 184.003906 289.914062 182.5 289.503906 C 181.859375 289.347656 181.234375 289.160156 180.613281 288.9375 L 186.464844 278.472656 C 187.6875 279.699219 188.726562 281.0625 189.585938 282.566406 Z M 189.585938 282.550781 " fill-opacity="1" fill-rule="nonzero"/><path fill="#ffffff" d="M 307.191406 332.226562 C 319.703125 328.066406 331.273438 311.507812 321.132812 299.335938 C 310.992188 287.164062 290.550781 293.519531 280.507812 302.261719 C 280.328125 302.410156 280.203125 302.59375 280.132812 302.8125 C 279.179688 303.734375 278.328125 304.738281 277.582031 305.832031 C 276.835938 306.925781 276.210938 308.085938 275.703125 309.308594 C 275.195312 310.53125 274.816406 311.792969 274.570312 313.097656 C 274.324219 314.398438 274.210938 315.710938 274.234375 317.035156 C 274.738281 333.414062 294.808594 336.355469 307.191406 332.226562 Z M 315.21875 316.089844 C 314.03125 318.21875 312.484375 320.039062 310.578125 321.558594 C 308.675781 323.078125 306.554688 324.179688 304.21875 324.867188 C 296.222656 327.5 280.410156 327.484375 281.238281 315.359375 C 282.003906 304.226562 293.574219 302.621094 302.234375 300.296875 C 305.242188 300.363281 308.160156 300.90625 310.992188 301.921875 C 317.152344 304.261719 317.980469 310.746094 315.21875 316.089844 Z M 315.21875 316.089844 " fill-opacity="1" fill-rule="nonzero"/><g clip-path="url(#a8734a6b20)"><path fill="#ffffff" d="M 537.496094 429.132812 C 500.164062 403.050781 461.480469 379.160156 421.449219 357.449219 C 421.023438 357.214844 420.574219 357.070312 420.09375 357.011719 C 419.613281 356.949219 419.136719 356.980469 418.667969 357.105469 C 418.199219 357.226562 417.769531 357.429688 417.382812 357.71875 C 416.992188 358.003906 416.667969 358.355469 416.410156 358.765625 C 394.699219 391.867188 374.582031 422.144531 353.035156 454.953125 C 352.265625 448.0625 351.023438 441.261719 349.3125 434.542969 C 349.125 433.882812 348.789062 433.308594 348.304688 432.820312 C 347.816406 432.335938 347.246094 432 346.582031 431.8125 C 311.335938 423.117188 276.054688 412.878906 240.304688 406.460938 C 239.832031 406.359375 239.367188 406.375 238.90625 406.503906 C 238.441406 406.632812 238.035156 406.863281 237.6875 407.191406 C 237.367188 407.28125 237.074219 407.425781 236.804688 407.628906 C 236.539062 407.828125 236.320312 408.066406 236.144531 408.351562 C 235.964844 408.632812 235.847656 408.9375 235.785156 409.265625 C 235.726562 409.59375 235.722656 409.921875 235.785156 410.246094 C 238.113281 420.410156 239.929688 430.664062 241.230469 441.011719 C 242.066406 450.738281 243.636719 460.347656 245.941406 469.839844 C 250.816406 488.136719 262.191406 501.640625 278.085938 511.75 C 295.375 522.785156 315.105469 531.625 334.214844 539.019531 C 345.164062 543.378906 356.453125 546.507812 368.082031 548.410156 C 375.589844 549.566406 384.332031 550.769531 392.132812 549.304688 C 407.570312 552.554688 423.871094 547.03125 437.132812 538.367188 C 455.59375 526.277344 471.792969 510.058594 486.875 494.085938 C 504.75 475.054688 521.488281 454.808594 538.164062 434.65625 C 538.347656 434.464844 538.507812 434.253906 538.644531 434.027344 C 538.785156 433.800781 538.894531 433.558594 538.980469 433.304688 C 539.066406 433.054688 539.121094 432.792969 539.148438 432.53125 C 539.175781 432.265625 539.171875 432 539.140625 431.734375 C 539.109375 431.472656 539.046875 431.214844 538.957031 430.960938 C 538.871094 430.710938 538.753906 430.472656 538.613281 430.246094 C 538.46875 430.023438 538.304688 429.816406 538.117188 429.628906 C 537.929688 429.4375 537.722656 429.273438 537.496094 429.132812 Z M 373.558594 529.074219 C 370.46875 525.296875 367.800781 521.246094 365.546875 516.917969 C 363.292969 512.589844 361.507812 508.078125 360.183594 503.378906 C 358.308594 496.65625 356.964844 489.824219 356.15625 482.886719 C 378.679688 453.785156 402.550781 419.511719 423.824219 389.464844 C 452.390625 402.875 480.324219 417.59375 507.628906 433.617188 C 490.679688 458.773438 471.289062 483.410156 448.410156 503.347656 C 437.035156 513.324219 424.035156 521.90625 409.40625 526.503906 C 402.121094 528.847656 394.652344 530.105469 387 530.277344 C 382.484375 530.246094 378.003906 529.847656 373.558594 529.074219 Z M 242.511719 413.089844 C 275.242188 423.3125 309.140625 430.496094 342.375 438.785156 C 350.5 472.421875 343.789062 520.328125 376.011719 542.21875 C 374.386719 542.023438 372.761719 541.796875 371.136719 541.554688 C 365.84375 538.34375 361.203125 534.375 357.210938 529.640625 C 352.703125 523.796875 349.285156 517.371094 346.957031 510.367188 C 341.316406 493.859375 341.105469 476.242188 339.140625 459.03125 C 338.441406 452.988281 337.726562 446.683594 332.820312 442.457031 C 327.910156 438.230469 321.167969 437.582031 315.105469 436.558594 C 296.773438 433.308594 278.445312 430.058594 260.113281 426.808594 C 259.855469 426.742188 259.59375 426.707031 259.324219 426.703125 C 259.058594 426.695312 258.796875 426.71875 258.535156 426.773438 C 258.273438 426.828125 258.023438 426.910156 257.78125 427.019531 C 257.539062 427.128906 257.3125 427.265625 257.101562 427.429688 C 256.886719 427.589844 256.699219 427.773438 256.527344 427.976562 C 256.355469 428.183594 256.210938 428.402344 256.089844 428.640625 C 255.972656 428.878906 255.878906 429.125 255.8125 429.382812 C 255.75 429.644531 255.714844 429.90625 255.707031 430.171875 C 255.140625 442.269531 255.796875 454.300781 257.675781 466.265625 C 258.660156 472.847656 260.042969 479.347656 261.820312 485.765625 C 256.707031 478.054688 253.292969 469.652344 251.582031 460.558594 C 248.394531 445.1875 248.429688 427.945312 242.511719 413.109375 Z M 282.066406 505.003906 C 278.621094 502.839844 275.371094 500.414062 272.316406 497.726562 C 269.832031 486.902344 266.238281 476.484375 264.484375 465.453125 C 262.859375 455.128906 262.1875 444.746094 262.46875 434.296875 L 310.847656 443.058594 C 318.972656 444.519531 329.046875 444.683594 331.128906 454.222656 C 332.949219 462.558594 332.914062 471.527344 333.726562 479.980469 C 335.160156 494.785156 337.402344 509.652344 344.144531 523.078125 C 346.800781 528.40625 350.121094 533.28125 354.105469 537.703125 C 348.078125 535.964844 342.144531 533.867188 336.230469 531.574219 C 317.359375 524.394531 299.304688 515.542969 282.066406 505.023438 Z M 448.425781 520.800781 C 432.875 534.109375 412.382812 548.199219 390.882812 541.113281 C 388.886719 540.464844 386.96875 539.636719 385.128906 538.628906 C 393.117188 538.535156 400.9375 537.355469 408.59375 535.085938 C 423.660156 530.761719 437.195312 522.554688 449.222656 512.675781 C 475.582031 491.109375 497.210938 462.589844 515.703125 434.234375 C 515.933594 433.824219 516.074219 433.386719 516.132812 432.917969 C 516.191406 432.453125 516.164062 431.992188 516.042969 431.539062 C 515.921875 431.082031 515.722656 430.667969 515.441406 430.292969 C 515.160156 429.914062 514.820312 429.605469 514.421875 429.359375 C 485.167969 412.164062 455.132812 396.414062 424.308594 382.101562 C 423.90625 381.886719 423.480469 381.75 423.027344 381.695312 C 422.570312 381.640625 422.125 381.671875 421.683594 381.789062 C 421.242188 381.90625 420.835938 382.097656 420.46875 382.367188 C 420.097656 382.636719 419.792969 382.964844 419.546875 383.351562 C 398.046875 413.726562 375.347656 443.609375 355.097656 474.859375 C 354.804688 472.015625 354.527344 469.15625 354.253906 466.296875 C 376.242188 432.578125 398.78125 399.230469 420.765625 365.542969 C 458.503906 386.152344 495.09375 408.625 530.539062 432.964844 C 505.027344 463.84375 478.976562 494.652344 448.425781 520.816406 Z M 448.425781 520.800781 " fill-opacity="1" fill-rule="nonzero"/></g><path fill="#ffffff" d="M 407.148438 444.164062 C 401.332031 460.007812 416.296875 473.171875 431.332031 473.609375 C 446.785156 474.0625 461.980469 458.105469 459.25 442.292969 C 458.917969 440.6875 458.386719 439.148438 457.660156 437.679688 C 456.929688 436.210938 456.023438 434.859375 454.941406 433.628906 C 453.859375 432.394531 452.640625 431.320312 451.28125 430.402344 C 449.917969 429.484375 448.464844 428.757812 446.914062 428.222656 C 440.105469 425.570312 434.011719 426.855469 427.835938 428.984375 C 418.832031 430.21875 410.722656 434.414062 407.148438 444.164062 Z M 451.53125 444.960938 C 451.855469 456.105469 441.390625 466.554688 430.402344 465.597656 C 419.742188 464.671875 409.277344 454.675781 415.339844 443.839844 C 419.09375 437.191406 426.472656 434.347656 433.980469 433.601562 C 442.476562 433.714844 451.269531 436.167969 451.53125 444.960938 Z M 451.53125 444.960938 " fill-opacity="1" fill-rule="nonzero"/><path fill="#ffffff" d="M 317.054688 497.058594 C 328.429688 489.046875 328.917969 472.015625 318.808594 462.800781 C 309.058594 453.976562 291.574219 454.871094 285.609375 467.679688 C 285.414062 468.160156 285.414062 468.640625 285.609375 469.125 C 284.570312 471.65625 283.957031 474.285156 283.777344 477.015625 C 283.597656 479.746094 283.855469 482.4375 284.554688 485.082031 C 288.617188 498.945312 304.933594 505.574219 317.054688 497.058594 Z M 294.109375 487.097656 C 288.390625 478.597656 291.136719 465.160156 302.785156 464.621094 C 302.992188 464.613281 303.191406 464.582031 303.386719 464.523438 C 305.570312 464.636719 307.640625 465.175781 309.597656 466.148438 C 310.066406 466.363281 310.527344 466.601562 310.972656 466.867188 C 311.417969 467.128906 311.847656 467.417969 312.265625 467.726562 C 312.679688 468.039062 313.078125 468.367188 313.457031 468.722656 C 313.835938 469.074219 314.195312 469.445312 314.535156 469.839844 C 314.875 470.230469 315.191406 470.636719 315.484375 471.0625 C 315.78125 471.488281 316.054688 471.929688 316.300781 472.386719 C 316.546875 472.839844 316.769531 473.304688 316.96875 473.785156 C 317.167969 474.265625 317.335938 474.753906 317.484375 475.25 C 317.628906 475.746094 317.746094 476.25 317.835938 476.761719 C 317.925781 477.269531 317.992188 477.785156 318.027344 478.300781 C 318.0625 478.816406 318.070312 479.335938 318.046875 479.851562 C 318.027344 480.371094 317.980469 480.886719 317.90625 481.398438 C 317.828125 481.910156 317.726562 482.417969 317.59375 482.917969 C 317.464844 483.421875 317.308594 483.914062 317.125 484.398438 C 316.941406 484.882812 316.734375 485.355469 316.5 485.816406 C 316.265625 486.28125 316.003906 486.726562 315.722656 487.164062 C 315.417969 487.59375 315.089844 488.007812 314.738281 488.402344 C 314.382812 488.792969 314.007812 489.164062 313.609375 489.511719 C 313.210938 489.859375 312.792969 490.183594 312.355469 490.480469 C 311.921875 490.777344 311.46875 491.046875 310.996094 491.289062 C 310.527344 491.53125 310.046875 491.746094 309.550781 491.933594 C 309.054688 492.117188 308.550781 492.273438 308.039062 492.394531 C 307.523438 492.519531 307.003906 492.613281 306.480469 492.675781 C 305.953125 492.738281 305.425781 492.765625 304.898438 492.765625 C 304.371094 492.765625 303.84375 492.730469 303.320312 492.664062 C 302.792969 492.601562 302.277344 492.503906 301.761719 492.378906 C 301.25 492.25 300.746094 492.09375 300.253906 491.902344 C 299.757812 491.714844 299.277344 491.5 298.808594 491.253906 C 298.339844 491.007812 297.890625 490.734375 297.453125 490.433594 C 297.019531 490.132812 296.605469 489.808594 296.207031 489.460938 C 295.8125 489.109375 295.4375 488.738281 295.085938 488.339844 C 294.738281 487.945312 294.410156 487.53125 294.109375 487.097656 Z M 294.109375 487.097656 " fill-opacity="1" fill-rule="nonzero"/><path fill="#ffffff" d="M 328.675781 175.410156 C 329.699219 189.726562 328.367188 208.722656 343.152344 216.539062 C 357.375 224.0625 376.710938 222.066406 391.90625 219.269531 C 425.15625 213.160156 457.476562 197.933594 484.777344 178.238281 C 497.03125 169.394531 512.503906 158.945312 519.230469 144.9375 C 524.625 133.691406 523.03125 120.1875 523.535156 108.015625 C 524.609375 81.5625 525.875 55.105469 526.511719 28.632812 C 526.53125 28.132812 526.445312 27.652344 526.246094 27.191406 C 526.042969 26.734375 525.753906 26.339844 525.371094 26.015625 C 525.125 25.722656 524.828125 25.484375 524.488281 25.308594 C 524.144531 25.128906 523.78125 25.023438 523.398438 24.988281 C 523.015625 24.957031 522.640625 24.996094 522.273438 25.113281 C 521.90625 25.230469 521.574219 25.410156 521.277344 25.660156 C 521.027344 25.792969 520.800781 25.953125 520.59375 26.144531 C 514.679688 30.4375 508.632812 34.484375 502.492188 38.367188 C 473.402344 55.300781 443.535156 70.167969 409.570312 75.417969 C 406.320312 75.9375 402.84375 76.359375 399.414062 76.703125 C 399.328125 76.363281 399.203125 76.035156 399.039062 75.726562 C 392.890625 64.433594 388.386719 52.515625 385.535156 39.976562 C 384.578125 35.78125 384.804688 29.511719 382.285156 25.96875 C 379.492188 22.132812 374.761719 23.726562 370.910156 24.730469 C 359.894531 27.65625 349.601562 32.210938 340.035156 38.398438 C 332.347656 43.273438 324.285156 50.554688 325.261719 60.613281 L 325.359375 61.167969 C 322.351562 99.046875 325.960938 137.738281 328.675781 175.410156 Z M 331.632812 91.246094 C 338.945312 97.082031 348.53125 99.371094 358.054688 100.332031 C 361.84375 100.738281 365.660156 100.980469 369.429688 101.125 C 369.71875 101.828125 370.191406 102.367188 370.84375 102.75 C 403.117188 122.367188 404.90625 177.097656 374.273438 199.183594 C 362.226562 200.28125 350.210938 200 338.230469 198.339844 C 336.507812 191.839844 336.800781 184.136719 336.328125 177.78125 L 335.792969 170.273438 C 338.703125 172.109375 341.828125 173.4375 345.167969 174.253906 C 348.328125 175.101562 351.539062 175.605469 354.804688 175.765625 L 354.804688 184.703125 L 361.03125 184.703125 L 361.03125 175.703125 C 364.164062 175.5 367.175781 174.785156 370.066406 173.554688 C 373.175781 172.265625 375.699219 170.246094 377.636719 167.496094 C 378.46875 166.277344 379.097656 164.960938 379.53125 163.550781 C 379.964844 162.140625 380.175781 160.699219 380.171875 159.222656 C 380.246094 156.832031 379.703125 154.589844 378.546875 152.496094 C 377.515625 150.714844 376.128906 149.273438 374.386719 148.171875 C 372.613281 147.03125 370.71875 146.148438 368.699219 145.523438 C 366.648438 144.875 364.566406 144.335938 362.460938 143.898438 L 360.980469 143.574219 L 360.980469 133.824219 C 362.761719 133.964844 364.507812 134.273438 366.230469 134.75 C 368.769531 135.46875 371.199219 136.464844 373.511719 137.738281 L 377.996094 126.933594 C 375.257812 125.382812 372.355469 124.265625 369.285156 123.585938 C 366.550781 122.953125 363.785156 122.589844 360.980469 122.496094 L 360.980469 113.574219 L 354.820312 113.574219 L 354.820312 122.675781 C 352.007812 122.933594 349.296875 123.617188 346.695312 124.722656 C 343.585938 126.003906 341.050781 128.015625 339.089844 130.75 C 338.25 131.988281 337.613281 133.320312 337.179688 134.75 C 336.75 136.179688 336.539062 137.644531 336.554688 139.136719 C 336.460938 141.554688 337.003906 143.816406 338.179688 145.929688 C 339.234375 147.710938 340.632812 149.15625 342.375 150.269531 C 344.152344 151.410156 346.050781 152.304688 348.0625 152.949219 C 350.113281 153.605469 352.191406 154.148438 354.300781 154.574219 L 354.839844 154.6875 L 354.839844 164.441406 C 352.65625 164.234375 350.523438 163.800781 348.433594 163.140625 C 345.617188 162.269531 342.957031 161.058594 340.457031 159.5 L 335.777344 169.933594 C 334.539062 152.480469 333.453125 135.027344 332.625 117.554688 C 332.199219 108.730469 331.941406 100.054688 331.632812 91.246094 Z M 500.640625 128.621094 C 500.800781 134.019531 497.585938 137.917969 494.285156 141.898438 C 483.054688 155.453125 467.308594 164.195312 451.953125 172.257812 C 435.410156 180.917969 418.410156 188.832031 400.4375 194.046875 C 395.511719 195.488281 390.523438 196.652344 385.46875 197.542969 C 398.082031 186.363281 402.90625 167.625 402.808594 151.097656 C 402.695312 132.703125 396.179688 112.566406 381.261719 101.144531 C 390.855469 100.875 400.394531 100.015625 409.878906 98.558594 C 442.023438 93.683594 472.640625 82.164062 502.019531 68.511719 C 502.019531 69.257812 502.019531 70.007812 502.019531 70.671875 C 501.808594 76.621094 501.484375 82.535156 501.175781 88.546875 C 500.703125 97.828125 500.332031 107.125 500.28125 116.417969 C 500.3125 120.515625 500.589844 124.578125 500.785156 128.671875 Z M 354.722656 141.917969 C 353.917969 141.652344 353.15625 141.300781 352.433594 140.859375 C 351.933594 140.601562 351.535156 140.230469 351.242188 139.746094 C 350.949219 139.265625 350.804688 138.742188 350.808594 138.179688 C 350.792969 137.304688 351.058594 136.523438 351.605469 135.839844 C 352.328125 135.035156 353.210938 134.492188 354.253906 134.214844 L 354.675781 134.097656 Z M 360.882812 156.039062 C 362.027344 156.363281 363.109375 156.828125 364.132812 157.433594 C 364.632812 157.722656 365.027344 158.117188 365.316406 158.617188 C 365.609375 159.117188 365.753906 159.652344 365.757812 160.230469 C 365.773438 161.070312 365.488281 161.796875 364.914062 162.410156 C 364.148438 163.132812 363.257812 163.621094 362.230469 163.871094 C 361.808594 163.992188 361.382812 164.089844 360.949219 164.164062 Z M 338.457031 48.539062 C 345.851562 41.941406 355.765625 37.261719 364.960938 33.914062 C 367.476562 32.980469 370.015625 32.152344 372.582031 31.425781 C 373.832031 30.925781 375.121094 30.585938 376.453125 30.402344 C 377.054688 30.632812 376.597656 31.003906 376.988281 31.71875 C 378.027344 33.636719 377.867188 37.667969 378.289062 39.84375 C 378.808594 42.542969 379.394531 45.242188 380.074219 47.972656 C 382.742188 58.199219 386.53125 67.996094 391.449219 77.351562 C 388.316406 77.53125 385.160156 77.628906 382.007812 77.628906 C 379.972656 72.839844 377.574219 68.238281 374.808594 63.832031 C 372.195312 59.71875 369.449219 55.039062 364.328125 54.082031 C 359.210938 53.121094 352.871094 55.949219 348.078125 57.882812 C 343.242188 59.628906 338.769531 62.046875 334.65625 65.132812 C 334.246094 64.5625 333.886719 63.960938 333.582031 63.328125 C 330.917969 57.542969 334.296875 52.359375 338.539062 48.589844 Z M 373.558594 77.335938 C 364.191406 76.871094 355.03125 75.246094 346.078125 72.460938 C 343.421875 71.644531 340.933594 70.460938 338.621094 68.917969 C 345.429688 65.992188 352.171875 61.574219 359.503906 60.972656 C 366.148438 60.417969 367.855469 66.121094 370.453125 71.03125 C 371.640625 73.125 372.648438 75.238281 373.640625 77.382812 Z M 344.03125 79.855469 C 355.601562 83.59375 368.40625 84.828125 380.5625 85.070312 C 393.078125 85.195312 405.488281 84.109375 417.792969 81.816406 C 430.09375 79.523438 442.0625 76.0625 453.691406 71.4375 C 465.773438 66.765625 477.441406 61.226562 488.695312 54.8125 C 499.289062 49.179688 509.472656 42.878906 519.246094 35.914062 C 518.726562 54.828125 517.960938 73.761719 517.34375 92.675781 C 517.019531 102.183594 517.019531 111.722656 516.46875 121.210938 C 516.011719 129.339844 515.6875 137.464844 511.105469 144.597656 C 506.523438 151.730469 500.039062 156.835938 493.832031 161.984375 C 481.671875 172.078125 468.644531 180.886719 454.746094 188.402344 C 440.847656 195.921875 426.347656 202.007812 411.246094 206.660156 C 394.75 211.730469 377.378906 215.207031 360.054688 213.371094 C 353.554688 212.6875 346.226562 211.160156 341.917969 206.042969 C 376.664062 212.851562 414.300781 198.957031 444.867188 183.875 C 460.808594 176.027344 477.09375 167.722656 490.546875 155.941406 C 496.511719 150.722656 503.222656 143.996094 506.488281 136.632812 C 507.71875 133.484375 508.113281 130.234375 507.675781 126.882812 C 507.320312 121.910156 507.398438 116.921875 507.480469 111.949219 C 507.660156 100.800781 508.324219 89.671875 508.925781 78.539062 C 509.058594 76.132812 509.074219 73.664062 509.136719 71.339844 C 509.136719 69.714844 509.136719 68.171875 509.367188 66.59375 C 509.59375 65.019531 510.359375 63.734375 509.1875 64.96875 C 509.476562 64.660156 509.703125 64.308594 509.871094 63.917969 C 510.035156 63.527344 510.128906 63.121094 510.148438 62.699219 C 510.167969 62.273438 510.113281 61.859375 509.988281 61.453125 C 509.859375 61.050781 509.667969 60.679688 509.410156 60.34375 C 509.152344 60.007812 508.839844 59.726562 508.484375 59.5 C 508.125 59.273438 507.738281 59.117188 507.324219 59.03125 C 506.90625 58.941406 506.492188 58.925781 506.070312 58.988281 C 505.652344 59.046875 505.253906 59.175781 504.882812 59.378906 C 476.425781 72.980469 446.898438 84.582031 415.8125 90.449219 C 399.859375 93.535156 383.765625 94.765625 367.53125 94.140625 C 354.902344 93.601562 340.601562 92.320312 331.273438 82.941406 C 331.144531 79.367188 330.988281 75.804688 330.804688 72.25 C 334.644531 75.839844 339.078125 78.390625 344.113281 79.902344 Z M 344.03125 79.855469 " fill-opacity="1" fill-rule="nonzero"/><path fill="#ffffff" d="M 470.574219 113.6875 C 470.070312 113.273438 469.550781 112.878906 469.007812 112.515625 C 468.464844 112.148438 467.910156 111.808594 467.332031 111.496094 C 466.757812 111.183594 466.171875 110.902344 465.570312 110.644531 C 464.96875 110.390625 464.355469 110.167969 463.730469 109.972656 C 463.105469 109.777344 462.472656 109.609375 461.835938 109.476562 C 461.195312 109.34375 460.550781 109.242188 459.898438 109.167969 C 459.25 109.097656 458.597656 109.058594 457.945312 109.050781 C 457.289062 109.042969 456.636719 109.066406 455.984375 109.121094 C 455.335938 109.179688 454.6875 109.265625 454.042969 109.382812 C 453.402344 109.503906 452.765625 109.652344 452.136719 109.832031 C 451.507812 110.011719 450.890625 110.222656 450.28125 110.460938 C 449.675781 110.703125 449.078125 110.972656 448.496094 111.269531 C 447.914062 111.566406 447.351562 111.894531 446.800781 112.246094 C 446.25 112.601562 445.71875 112.980469 445.203125 113.382812 C 444.691406 113.789062 444.199219 114.21875 443.726562 114.671875 C 443.253906 115.121094 442.804688 115.597656 442.378906 116.09375 C 435.878906 121.519531 431.929688 131.027344 433.441406 138.976562 C 436.464844 155.015625 456.632812 155.972656 468.25 148.726562 C 468.976562 148.269531 469.667969 147.777344 470.332031 147.242188 C 470.996094 146.703125 471.628906 146.132812 472.226562 145.519531 C 472.820312 144.910156 473.378906 144.269531 473.902344 143.589844 C 474.421875 142.914062 474.902344 142.210938 475.339844 141.476562 C 475.777344 140.746094 476.167969 139.988281 476.515625 139.207031 C 476.867188 138.429688 477.167969 137.632812 477.421875 136.816406 C 477.675781 136.003906 477.878906 135.175781 478.035156 134.335938 C 478.191406 133.496094 478.300781 132.652344 478.355469 131.800781 C 478.414062 130.949219 478.417969 130.097656 478.375 129.242188 C 478.328125 128.390625 478.234375 127.542969 478.089844 126.703125 C 477.949219 125.863281 477.753906 125.03125 477.511719 124.214844 C 477.269531 123.394531 476.980469 122.59375 476.644531 121.808594 C 476.304688 121.023438 475.925781 120.261719 475.496094 119.523438 C 475.070312 118.785156 474.601562 118.074219 474.089844 117.390625 C 473.578125 116.707031 473.03125 116.054688 472.441406 115.433594 C 471.855469 114.816406 471.230469 114.234375 470.574219 113.6875 Z M 464.074219 141.722656 C 457.574219 145.765625 444.332031 147.554688 441.210938 138.472656 C 438.285156 130.003906 445.90625 119.621094 454.210938 117.230469 C 455.25 117 456.300781 116.890625 457.363281 116.914062 C 458.429688 116.933594 459.472656 117.078125 460.503906 117.351562 C 461.53125 117.625 462.511719 118.015625 463.445312 118.527344 C 464.378906 119.035156 465.238281 119.652344 466.027344 120.367188 C 466.40625 120.71875 466.761719 121.089844 467.097656 121.480469 C 467.433594 121.871094 467.75 122.28125 468.039062 122.707031 C 468.328125 123.132812 468.59375 123.574219 468.832031 124.03125 C 469.070312 124.488281 469.285156 124.957031 469.46875 125.441406 C 469.65625 125.921875 469.8125 126.410156 469.941406 126.910156 C 470.074219 127.410156 470.171875 127.914062 470.246094 128.425781 C 470.316406 128.9375 470.359375 129.453125 470.371094 129.96875 C 470.386719 130.484375 470.371094 130.996094 470.324219 131.511719 C 470.277344 132.027344 470.203125 132.535156 470.097656 133.039062 C 469.996094 133.546875 469.863281 134.042969 469.703125 134.535156 C 469.539062 135.023438 469.351562 135.503906 469.136719 135.972656 C 468.921875 136.441406 468.679688 136.894531 468.410156 137.335938 C 468.144531 137.777344 467.851562 138.203125 467.535156 138.609375 C 467.21875 139.019531 466.878906 139.40625 466.519531 139.773438 C 466.15625 140.144531 465.777344 140.492188 465.378906 140.816406 C 464.976562 141.140625 464.558594 141.445312 464.125 141.722656 Z M 464.074219 141.722656 " fill-opacity="1" fill-rule="nonzero"/><path fill="#ffffff" d="M 132.871094 229.75 C 129.730469 233.109375 126.863281 236.679688 124.257812 240.464844 C 121.65625 244.253906 119.347656 248.210938 117.339844 252.34375 C 115.328125 256.472656 113.636719 260.730469 112.261719 265.117188 C 110.890625 269.5 109.847656 273.964844 109.144531 278.503906 C 108.964844 279.691406 109.972656 280.015625 110.523438 278.957031 C 113.011719 274.082031 117.660156 265.226562 122.664062 254.972656 C 127.667969 244.71875 131.828125 235.472656 134.039062 230.597656 C 134.558594 229.457031 133.683594 228.855469 132.871094 229.75 Z M 132.871094 229.75 " fill-opacity="1" fill-rule="nonzero"/><path fill="#ffffff" d="M 239.050781 316.707031 C 237.152344 319.421875 235.332031 322.007812 233.574219 324.214844 C 232.011719 326.253906 230.273438 328.125 228.359375 329.839844 C 226.875 331.132812 225.25 332.214844 223.484375 333.089844 C 222.183594 333.675781 222.363281 334.714844 223.9375 334.472656 C 226.074219 334.027344 228.085938 333.269531 229.984375 332.195312 C 232.441406 330.796875 234.695312 329.125 236.746094 327.175781 C 239.101562 324.917969 241.316406 322.527344 243.390625 320.007812 C 245.726562 317.222656 247.894531 314.316406 249.890625 311.28125 C 253.621094 305.503906 256.683594 299.394531 259.089844 292.949219 C 260.773438 288.449219 262.101562 283.84375 263.070312 279.136719 C 263.378906 277.640625 262.371094 277.316406 261.707031 278.664062 C 256.664062 288.792969 251.050781 298.589844 244.871094 308.0625 C 242.902344 311.101562 240.953125 313.980469 239.050781 316.707031 Z M 239.050781 316.707031 " fill-opacity="1" fill-rule="nonzero"/><path fill="#ffffff" d="M 251.988281 320.21875 C 248.460938 322.285156 245.28125 324.789062 242.441406 327.730469 C 239.605469 330.671875 237.21875 333.945312 235.28125 337.542969 C 235.003906 338.03125 235.6875 338.84375 236.222656 338.632812 C 238.210938 337.910156 240.089844 336.976562 241.863281 335.824219 C 243.632812 334.671875 245.25 333.335938 246.71875 331.8125 C 248.183594 330.289062 249.457031 328.621094 250.539062 326.804688 C 251.621094 324.992188 252.480469 323.078125 253.125 321.0625 C 253.304688 320.578125 252.476562 319.925781 251.988281 320.21875 Z M 251.988281 320.21875 " fill-opacity="1" fill-rule="nonzero"/><path fill="#ffffff" d="M 257.773438 328.945312 C 256.460938 329.316406 255.222656 329.863281 254.066406 330.585938 C 252.90625 331.304688 251.871094 332.175781 250.960938 333.191406 C 250.046875 334.207031 249.296875 335.328125 248.703125 336.558594 C 248.109375 337.785156 247.699219 339.074219 247.46875 340.417969 C 247.386719 340.792969 248.183594 341.507812 248.542969 341.378906 C 249.859375 341.011719 251.097656 340.46875 252.257812 339.75 C 253.417969 339.03125 254.457031 338.164062 255.371094 337.152344 C 256.28125 336.136719 257.035156 335.015625 257.628906 333.785156 C 258.226562 332.554688 258.636719 331.265625 258.863281 329.921875 C 258.941406 329.53125 258.144531 328.832031 257.773438 328.945312 Z M 257.773438 328.945312 " fill-opacity="1" fill-rule="nonzero"/><path fill="#ffffff" d="M 323.492188 350.316406 C 331.121094 342.574219 337.714844 334.03125 343.265625 324.6875 C 348.816406 315.339844 353.167969 305.464844 356.316406 295.0625 C 356.722656 293.699219 355.765625 293.257812 355 294.445312 C 351.554688 299.824219 345.136719 309.933594 338.164062 321.648438 C 331.195312 333.367188 325.390625 343.847656 322.320312 349.421875 C 321.652344 350.625 322.5 351.257812 323.492188 350.316406 Z M 323.492188 350.316406 " fill-opacity="1" fill-rule="nonzero"/><path fill="#ffffff" d="M 371.074219 479.65625 C 373.535156 476.078125 375.074219 472.140625 375.6875 467.839844 C 375.769531 467.269531 374.828125 466.785156 374.402344 467.15625 C 371.304688 469.855469 368.578125 472.886719 366.21875 476.25 C 363.859375 479.617188 361.941406 483.214844 360.460938 487.046875 C 360.25 487.570312 361.03125 488.285156 361.535156 488.023438 C 365.371094 485.980469 368.550781 483.191406 371.074219 479.65625 Z M 371.074219 479.65625 " fill-opacity="1" fill-rule="nonzero"/><path fill="#ffffff" d="M 376.273438 486.042969 C 378.960938 481.855469 380.625 477.292969 381.261719 472.359375 C 381.261719 472.019531 381.105469 471.777344 380.796875 471.636719 C 380.488281 471.492188 380.203125 471.535156 379.945312 471.757812 C 376.789062 475.214844 373.910156 478.894531 371.316406 482.789062 C 368.78125 486.726562 366.546875 490.824219 364.621094 495.09375 C 364.515625 495.417969 364.589844 495.695312 364.84375 495.925781 C 365.097656 496.15625 365.378906 496.203125 365.695312 496.066406 C 369.980469 493.527344 373.507812 490.1875 376.273438 486.042969 Z M 376.273438 486.042969 " fill-opacity="1" fill-rule="nonzero"/><path fill="#ffffff" d="M 390.28125 477.605469 C 390.324219 477.445312 390.316406 477.289062 390.257812 477.132812 C 390.199219 476.976562 390.101562 476.855469 389.960938 476.761719 C 389.824219 476.671875 389.671875 476.628906 389.503906 476.640625 C 389.339844 476.648438 389.191406 476.707031 389.0625 476.8125 C 384.769531 480.679688 381.015625 485.011719 377.800781 489.8125 C 374.644531 494.644531 372.144531 499.796875 370.292969 505.265625 C 370.238281 505.425781 370.242188 505.585938 370.296875 505.746094 C 370.351562 505.902344 370.449219 506.03125 370.589844 506.121094 C 370.730469 506.214844 370.882812 506.257812 371.054688 506.246094 C 371.222656 506.234375 371.367188 506.171875 371.496094 506.0625 C 375.796875 502.203125 379.550781 497.867188 382.757812 493.0625 C 385.90625 488.222656 388.414062 483.070312 390.28125 477.605469 Z M 390.28125 477.605469 " fill-opacity="1" fill-rule="nonzero"/><path fill="#ffffff" d="M 399.625 483.765625 C 399.679688 483.605469 399.675781 483.445312 399.621094 483.285156 C 399.566406 483.128906 399.46875 483 399.328125 482.910156 C 399.1875 482.816406 399.03125 482.773438 398.863281 482.785156 C 398.695312 482.796875 398.550781 482.859375 398.421875 482.96875 C 394.078125 486.8125 390.300781 491.152344 387.09375 495.988281 C 383.886719 500.824219 381.359375 505.992188 379.507812 511.488281 C 379.453125 511.648438 379.457031 511.808594 379.511719 511.96875 C 379.566406 512.128906 379.664062 512.253906 379.804688 512.347656 C 379.945312 512.441406 380.097656 512.480469 380.265625 512.46875 C 380.433594 512.457031 380.582031 512.398438 380.710938 512.285156 C 385.054688 508.441406 388.832031 504.101562 392.039062 499.265625 C 395.246094 494.429688 397.773438 489.265625 399.625 483.765625 Z M 399.625 483.765625 " fill-opacity="1" fill-rule="nonzero"/><path fill="#ffffff" d="M 403.492188 493.484375 C 399.730469 496.878906 396.550781 500.753906 393.953125 505.101562 C 391.355469 509.453125 389.453125 514.089844 388.25 519.015625 C 388.195312 519.359375 388.316406 519.621094 388.617188 519.800781 C 388.914062 519.984375 389.203125 519.96875 389.484375 519.761719 C 393.253906 516.371094 396.4375 512.496094 399.039062 508.144531 C 401.636719 503.792969 403.539062 499.15625 404.742188 494.230469 C 404.804688 493.878906 404.683594 493.609375 404.375 493.425781 C 404.066406 493.242188 403.773438 493.261719 403.492188 493.484375 Z M 403.492188 493.484375 " fill-opacity="1" fill-rule="nonzero"/><path fill="#ffffff" d="M 408.773438 504.859375 C 406.3125 506.667969 404.21875 508.832031 402.5 511.359375 C 400.894531 513.949219 399.773438 516.734375 399.136719 519.710938 C 399.039062 520.136719 399.851562 520.816406 400.242188 520.640625 C 400.976562 520.328125 401.6875 519.964844 402.367188 519.550781 C 403.050781 519.136719 403.699219 518.671875 404.308594 518.160156 C 404.921875 517.648438 405.492188 517.09375 406.023438 516.496094 C 406.554688 515.898438 407.035156 515.265625 407.472656 514.597656 C 407.910156 513.929688 408.292969 513.230469 408.625 512.503906 C 408.957031 511.777344 409.230469 511.03125 409.453125 510.265625 C 409.671875 509.496094 409.835938 508.71875 409.9375 507.925781 C 410.042969 507.136719 410.089844 506.339844 410.074219 505.542969 C 410.074219 505.054688 409.117188 504.597656 408.773438 504.859375 Z M 408.773438 504.859375 " fill-opacity="1" fill-rule="nonzero"/><path fill="#ffffff" d="M 473.90625 458.253906 C 467.464844 466 461.6875 474.210938 456.566406 482.886719 C 455.902344 484.042969 456.714844 484.707031 457.6875 483.796875 C 472.5625 470.160156 485.386719 454.816406 496.171875 437.761719 C 496.886719 436.640625 496.089844 435.957031 495.082031 436.816406 C 487.445312 443.390625 480.386719 450.535156 473.90625 458.253906 Z M 473.90625 458.253906 " fill-opacity="1" fill-rule="nonzero"/><path fill="#ffffff" d="M 474.671875 446.585938 C 474.574219 446.992188 475.371094 447.6875 475.757812 447.542969 C 477.183594 447.035156 478.519531 446.355469 479.769531 445.503906 C 481.019531 444.652344 482.140625 443.65625 483.136719 442.519531 C 484.132812 441.382812 484.96875 440.136719 485.644531 438.785156 C 486.324219 437.4375 486.820312 436.019531 487.136719 434.542969 C 487.234375 434.121094 486.4375 433.421875 486.046875 433.582031 C 484.625 434.09375 483.285156 434.773438 482.039062 435.625 C 480.789062 436.476562 479.664062 437.46875 478.667969 438.605469 C 477.675781 439.742188 476.839844 440.988281 476.160156 442.339844 C 475.484375 443.691406 474.988281 445.105469 474.671875 446.585938 Z M 474.671875 446.585938 " fill-opacity="1" fill-rule="nonzero"/><path fill="#ffffff" d="M 473.859375 438.070312 C 474.304688 438.035156 474.742188 437.953125 475.171875 437.824219 C 475.601562 437.695312 476.011719 437.515625 476.398438 437.292969 C 476.789062 437.070312 477.148438 436.808594 477.476562 436.507812 C 477.808594 436.203125 478.101562 435.867188 478.355469 435.5 C 478.609375 435.128906 478.820312 434.738281 478.988281 434.320312 C 479.15625 433.90625 479.273438 433.476562 479.34375 433.03125 C 479.414062 432.589844 479.4375 432.144531 479.40625 431.699219 C 479.378906 431.25 479.300781 430.8125 479.171875 430.382812 C 478.890625 429.933594 478.492188 429.664062 477.96875 429.570312 C 477.085938 429.707031 476.257812 429.996094 475.480469 430.4375 C 474.707031 430.878906 474.035156 431.445312 473.46875 432.136719 C 473.027344 432.914062 472.734375 433.742188 472.59375 434.621094 C 472.453125 435.503906 472.476562 436.382812 472.65625 437.257812 C 472.9375 437.707031 473.335938 437.976562 473.859375 438.070312 Z M 473.859375 438.070312 " fill-opacity="1" fill-rule="nonzero"/><path fill="#ffffff" d="M 398.128906 442.734375 C 403.859375 436.699219 409 430.199219 413.550781 423.230469 C 418.105469 416.265625 421.992188 408.949219 425.21875 401.277344 C 425.640625 400.269531 424.75 399.652344 424 400.496094 C 418.269531 406.527344 413.128906 413.023438 408.574219 419.988281 C 404.023438 426.949219 400.136719 434.265625 396.910156 441.9375 C 396.488281 442.945312 397.367188 443.527344 398.128906 442.734375 Z M 398.128906 442.734375 " fill-opacity="1" fill-rule="nonzero"/><path fill="#ffffff" d="M 274.316406 470.570312 C 272.691406 460.121094 271.226562 450.875 270.53125 445.871094 C 270.367188 444.765625 269.3125 444.714844 269.082031 445.871094 C 268.355469 449.355469 267.894531 452.875 267.703125 456.433594 C 267.414062 461.507812 267.683594 466.554688 268.507812 471.570312 C 269.328125 476.585938 270.683594 481.453125 272.578125 486.171875 C 273.871094 489.484375 275.410156 492.679688 277.191406 495.757812 C 277.761719 496.734375 278.816406 496.359375 278.558594 495.253906 C 277.566406 490.25 275.988281 481.019531 274.316406 470.570312 Z M 274.316406 470.570312 " fill-opacity="1" fill-rule="nonzero"/><path fill="#ffffff" d="M 337.433594 521.289062 C 332.304688 517.78125 326.828125 514.945312 321.007812 512.773438 C 315.183594 510.605469 309.1875 509.171875 303.015625 508.46875 C 302.84375 508.445312 302.683594 508.480469 302.535156 508.570312 C 302.386719 508.660156 302.28125 508.789062 302.222656 508.949219 C 302.164062 509.113281 302.160156 509.277344 302.214844 509.441406 C 302.265625 509.605469 302.367188 509.734375 302.511719 509.832031 C 307.644531 513.328125 313.121094 516.164062 318.941406 518.332031 C 324.761719 520.5 330.757812 521.941406 336.929688 522.652344 C 337.101562 522.675781 337.261719 522.640625 337.410156 522.550781 C 337.558594 522.460938 337.660156 522.332031 337.722656 522.171875 C 337.78125 522.007812 337.785156 521.84375 337.730469 521.679688 C 337.675781 521.515625 337.578125 521.382812 337.433594 521.289062 Z M 337.433594 521.289062 " fill-opacity="1" fill-rule="nonzero"/><path fill="#ffffff" d="M 486.386719 81.203125 C 478.683594 84.453125 464.074219 90.191406 447.109375 95.828125 C 430.144531 101.46875 415 105.757812 406.921875 107.839844 C 405.132812 108.324219 405.296875 109.367188 407.132812 109.269531 C 413.003906 109.003906 418.835938 108.394531 424.636719 107.449219 C 441.3125 104.777344 457.109375 99.476562 472.023438 91.539062 C 477.21875 88.796875 482.242188 85.761719 487.085938 82.4375 C 488.628906 81.429688 488.109375 80.554688 486.386719 81.203125 Z M 486.386719 81.203125 " fill-opacity="1" fill-rule="nonzero"/><path fill="#ffffff" d="M 418.230469 117.929688 C 421.609375 117.097656 424.679688 115.632812 427.445312 113.527344 C 427.835938 113.234375 427.59375 112.210938 427.121094 112.113281 C 425.433594 111.734375 423.722656 111.546875 421.996094 111.550781 C 420.265625 111.550781 418.558594 111.746094 416.871094 112.128906 C 415.183594 112.511719 413.558594 113.078125 412 113.824219 C 410.4375 114.570312 408.980469 115.476562 407.621094 116.546875 C 407.246094 116.839844 407.472656 117.882812 407.945312 117.960938 C 411.375 118.671875 414.804688 118.660156 418.230469 117.929688 Z M 418.230469 117.929688 " fill-opacity="1" fill-rule="nonzero"/><path fill="#ffffff" d="M 416.914062 126.414062 C 418.027344 126.09375 419.050781 125.589844 419.984375 124.90625 C 420.917969 124.222656 421.703125 123.394531 422.34375 122.429688 C 422.390625 122.175781 422.371094 121.925781 422.28125 121.679688 C 422.191406 121.433594 422.042969 121.230469 421.839844 121.066406 C 420.832031 120.675781 419.789062 120.445312 418.710938 120.371094 C 417.632812 120.300781 416.570312 120.390625 415.519531 120.644531 C 414.46875 120.898438 413.480469 121.304688 412.554688 121.863281 C 411.628906 122.417969 410.808594 123.101562 410.089844 123.910156 C 409.984375 124.148438 409.945312 124.398438 409.980469 124.660156 C 410.011719 124.917969 410.109375 125.152344 410.269531 125.355469 C 411.277344 125.921875 412.355469 126.292969 413.5 126.476562 C 414.640625 126.65625 415.78125 126.636719 416.914062 126.414062 Z M 416.914062 126.414062 " fill-opacity="1" fill-rule="nonzero"/><path fill="#ffffff" d="M 415.664062 159.5625 C 416.988281 159.597656 418.296875 159.476562 419.59375 159.203125 C 420.886719 158.929688 422.132812 158.507812 423.332031 157.945312 C 424.527344 157.378906 425.644531 156.6875 426.679688 155.863281 C 427.714844 155.039062 428.644531 154.105469 429.460938 153.0625 C 429.722656 152.773438 429.378906 151.765625 429.007812 151.683594 C 428.324219 151.527344 427.632812 151.425781 426.933594 151.386719 C 426.230469 151.34375 425.535156 151.359375 424.835938 151.433594 C 424.140625 151.507812 423.453125 151.640625 422.777344 151.828125 C 422.101562 152.019531 421.449219 152.261719 420.8125 152.558594 C 420.179688 152.855469 419.574219 153.203125 418.996094 153.601562 C 418.417969 154 417.878906 154.445312 417.375 154.933594 C 416.875 155.421875 416.414062 155.945312 416 156.511719 C 415.582031 157.078125 415.21875 157.671875 414.902344 158.296875 C 414.65625 158.671875 415.289062 159.582031 415.664062 159.5625 Z M 415.664062 159.5625 " fill-opacity="1" fill-rule="nonzero"/><path fill="#ffffff" d="M 431.703125 158.296875 C 427.664062 159.289062 423.761719 160.660156 419.988281 162.410156 C 416.253906 164.226562 412.730469 166.394531 409.425781 168.910156 C 409.328125 169.019531 409.261719 169.148438 409.230469 169.292969 C 409.199219 169.4375 409.207031 169.582031 409.25 169.722656 C 409.292969 169.867188 409.367188 169.988281 409.472656 170.09375 C 409.578125 170.195312 409.703125 170.265625 409.847656 170.304688 C 412.035156 170.410156 414.207031 170.246094 416.355469 169.8125 C 418.503906 169.378906 420.566406 168.691406 422.546875 167.75 C 424.523438 166.808594 426.359375 165.636719 428.050781 164.242188 C 429.738281 162.847656 431.234375 161.265625 432.53125 159.5 C 432.859375 159.042969 432.257812 158.167969 431.703125 158.296875 Z M 431.703125 158.296875 " fill-opacity="1" fill-rule="nonzero"/><path fill="#ffffff" d="M 427.265625 169.933594 C 425.601562 170.105469 423.964844 170.429688 422.359375 170.902344 C 420.75 171.375 419.203125 171.988281 417.707031 172.746094 C 416.210938 173.503906 414.800781 174.390625 413.46875 175.40625 C 412.136719 176.421875 410.90625 177.546875 409.78125 178.789062 C 409.457031 179.128906 409.78125 180.121094 410.316406 180.136719 C 413.839844 180.289062 417.1875 179.597656 420.359375 178.058594 C 423.480469 176.417969 426.015625 174.132812 427.964844 171.199219 C 428.308594 170.808594 427.738281 169.933594 427.265625 169.933594 Z M 427.265625 169.933594 " fill-opacity="1" fill-rule="nonzero"/><path fill="#ffffff" d="M 494.886719 92.871094 C 493.136719 99.90625 492.101562 107.046875 491.78125 114.289062 C 491.527344 121.535156 491.980469 128.734375 493.148438 135.886719 C 493.175781 136.066406 493.257812 136.214844 493.394531 136.332031 C 493.53125 136.449219 493.691406 136.511719 493.871094 136.511719 C 494.050781 136.511719 494.210938 136.449219 494.347656 136.332031 C 494.484375 136.214844 494.566406 136.066406 494.59375 135.886719 C 496.351562 128.851562 497.386719 121.710938 497.699219 114.46875 C 497.957031 107.222656 497.5 100.027344 496.332031 92.871094 C 496.304688 92.691406 496.222656 92.542969 496.085938 92.425781 C 495.949219 92.308594 495.789062 92.25 495.609375 92.25 C 495.429688 92.25 495.269531 92.308594 495.132812 92.425781 C 494.996094 92.542969 494.914062 92.691406 494.886719 92.871094 Z M 494.886719 92.871094 " fill-opacity="1" fill-rule="nonzero"/><path fill="#ffffff" d="M 351.878906 50.601562 C 354.238281 49.402344 356.699219 48.464844 359.257812 47.792969 C 360.859375 47.363281 362.484375 47.054688 364.132812 46.867188 C 364.890625 46.777344 365.648438 46.777344 366.410156 46.867188 C 366.910156 46.910156 367.363281 47.089844 367.757812 47.402344 C 368.96875 48.597656 370.015625 49.925781 370.894531 51.382812 C 372.046875 53.007812 373.183594 54.453125 374.273438 55.804688 C 376.453125 58.484375 378.417969 60.679688 379.816406 62.058594 C 379.929688 62.203125 380.078125 62.292969 380.261719 62.324219 C 380.445312 62.355469 380.613281 62.324219 380.773438 62.226562 C 380.929688 62.128906 381.035156 61.992188 381.085938 61.8125 C 381.140625 61.636719 381.128906 61.464844 381.050781 61.296875 C 380.402344 59.394531 379.425781 56.679688 377.980469 53.527344 C 377.265625 51.902344 376.46875 50.277344 375.558594 48.507812 C 375.101562 47.628906 374.664062 46.785156 374.03125 45.761719 C 373.328125 44.558594 372.425781 43.53125 371.332031 42.671875 C 370.664062 42.164062 369.929688 41.769531 369.136719 41.488281 C 368.386719 41.242188 367.621094 41.101562 366.832031 41.0625 C 365.5625 41.035156 364.316406 41.191406 363.09375 41.535156 C 361.125 42.054688 359.257812 42.820312 357.488281 43.828125 C 354.894531 45.292969 352.683594 47.199219 350.855469 49.546875 C 350.710938 49.6875 350.636719 49.859375 350.632812 50.0625 C 350.628906 50.265625 350.699219 50.441406 350.839844 50.585938 C 350.980469 50.734375 351.152344 50.808594 351.355469 50.8125 C 351.558594 50.8125 351.734375 50.746094 351.878906 50.601562 Z M 351.878906 50.601562 " fill-opacity="1" fill-rule="nonzero"/></svg>