<svg xmlns="http://www.w3.org/2000/svg" xmlns:xlink="http://www.w3.org/1999/xlink" width="750" zoomAndPan="magnify" viewBox="0 0 562.5 562.499982" height="750" preserveAspectRatio="xMidYMid meet" version="1.0"><path fill="#ffffff" d="M 296.675781 503.59375 C 310.546875 489.789062 331.773438 468.621094 343.8125 453.335938 C 367.53125 423.175781 379.765625 391.585938 382.597656 352.984375 C 382.914062 348.855469 382.792969 344.667969 382.875 340.484375 C 382.949219 336.457031 383.035156 332.175781 382.664062 328.144531 C 382.054688 321.457031 382.152344 315.050781 377.886719 308.757812 C 406.992188 275.265625 445.40625 241.402344 471.59375 205.882812 C 484.574219 188.285156 491.925781 171.769531 496.515625 154.390625 C 501.128906 136.847656 505.402344 121.042969 509.238281 103.238281 C 511.664062 92.007812 512.84375 80.945312 514.507812 69.339844 C 515.40625 63.046875 519.816406 26.445312 517.945312 23.277344 C 516.164062 20.238281 498.8125 22.859375 495.523438 23.484375 C 477.960938 26.8125 460.96875 29.382812 443.308594 33.441406 C 437.425781 34.789062 431.820312 36.65625 425.9375 38.003906 C 412.464844 41.113281 385.464844 50.0625 373.804688 55.613281 C 361.664062 61.398438 350.207031 67.648438 339.421875 76.917969 C 328.214844 86.574219 317.886719 98.371094 305.855469 109.617188 C 282.332031 131.582031 263.039062 156.179688 240.363281 177.917969 C 214.15625 171.5 174.996094 182.378906 159.210938 187.160156 C 146.324219 191.050781 120.71875 204.816406 110.445312 213.417969 C 106.488281 216.738281 102.472656 219.96875 98.394531 223.613281 C 90.542969 230.628906 41.324219 281.789062 39.746094 285.777344 C 38.542969 288.796875 39.625 293.296875 43.910156 294.558594 C 45.917969 295.15625 48.367188 293.871094 51.207031 293.257812 C 53.765625 292.707031 56.617188 292.496094 58.527344 292.261719 C 73.511719 290.46875 88.238281 288.03125 102.5625 286.132812 C 112.605469 284.824219 122.3125 283.238281 131.808594 281.851562 C 140.203125 280.613281 149.480469 279.632812 157.457031 277.199219 C 158.632812 276.847656 159.796875 276.15625 161.175781 276.160156 C 165.648438 281.820312 172.167969 286.46875 176.789062 292.105469 C 171.976562 294.4375 167.269531 296.765625 162.453125 298.929688 C 156.964844 301.386719 147.105469 303.898438 146.402344 311.117188 C 145.976562 315.652344 153.5625 322.765625 157.976562 327.488281 C 161.996094 331.796875 166.589844 336.066406 170.6875 340.101562 C 187.945312 357.035156 206.992188 373.835938 224.128906 388.691406 C 228.214844 392.234375 232.757812 396.5625 237.421875 400.015625 C 242.03125 403.441406 246.75 409.519531 250.886719 411.503906 C 253.3125 412.683594 256.363281 412.0625 258.820312 410.183594 C 259.914062 409.324219 260.441406 408.113281 261.367188 406.828125 C 264.421875 402.628906 265.207031 400.878906 266.539062 396.828125 C 267.210938 394.828125 267.929688 392.605469 268.402344 390.683594 C 269.433594 386.410156 269.484375 381.910156 271.015625 378.582031 L 286.703125 392.230469 C 287.675781 395.886719 285.5 406.179688 285.066406 410.667969 C 282.328125 440.183594 279.257812 468.714844 277.457031 498.230469 C 277.34375 500.140625 277.589844 503.085938 276.902344 505.585938 C 276.007812 508.777344 275.347656 511.117188 276.636719 512.929688 C 283 521.929688 290.71875 509.539062 296.675781 503.59375 Z M 159.09375 263.554688 C 157.78125 264.269531 155.402344 263.9375 153.320312 264.199219 C 147.582031 264.917969 141.839844 265.878906 136.679688 266.398438 C 149.875 251.214844 162.773438 237.066406 175.355469 221.21875 C 178.113281 217.75 185.792969 209.542969 182.898438 206.460938 C 179.292969 202.625 170.140625 213.070312 165.863281 217.425781 C 151.457031 232.109375 138.554688 246.066406 124.183594 261.300781 C 121.367188 264.28125 118.65625 268.203125 115.855469 270.125 C 113.847656 271.488281 109.710938 271.578125 106.996094 272.097656 C 103.808594 272.730469 100.78125 273.542969 98.4375 273.449219 C 108.453125 262.050781 116.769531 251.421875 126.046875 239.367188 C 128.003906 236.8125 134.515625 230.28125 132.277344 228.25 C 130.222656 226.351562 123.8125 233.558594 121.566406 235.742188 C 110.886719 246.097656 100.4375 257.042969 90.316406 267.90625 C 87.71875 270.679688 85.066406 274.167969 82.121094 276.265625 C 79.984375 277.789062 75.734375 277.730469 72.964844 278.246094 C 69.574219 278.875 67.046875 279.699219 64.253906 279.757812 L 106.253906 235.570312 C 128.960938 215.035156 145.839844 205.347656 174.636719 196.546875 C 190.949219 191.558594 211.582031 189.648438 228.484375 189.050781 C 228.726562 189.03125 229.132812 188.777344 229.414062 189.023438 C 210.113281 209.871094 188.667969 232.539062 167.898438 254.550781 C 165 257.625 161.648438 262.15625 159.09375 263.554688 Z M 469.691406 37.671875 C 475.910156 36.425781 482.308594 34.679688 489.09375 33.511719 C 493.550781 32.757812 498.71875 31.292969 503.695312 30.597656 C 506.054688 30.253906 507.796875 29.628906 509.761719 29.945312 C 509.917969 32.027344 510.421875 34.085938 509.320312 36.210938 C 505.660156 35.210938 500.964844 30.675781 497.867188 34.503906 C 492.613281 41.007812 523.316406 57.609375 496.113281 43.773438 C 493.523438 42.464844 487.058594 36.796875 484.867188 38.945312 C 482.097656 41.664062 488.878906 47.714844 492.394531 50.597656 C 494.183594 52.082031 496.121094 53.273438 497.824219 54.503906 C 501.304688 57.050781 505.230469 58.824219 504.15625 62.601562 C 498.851562 58.585938 492.9375 56.542969 487.300781 52.789062 C 484.675781 51.03125 482.15625 49.148438 478.851562 46.9375 C 477.109375 45.769531 472.558594 41.515625 470.625 43.414062 C 467.953125 46.054688 476.5625 54.179688 479.140625 56.617188 C 484.980469 62.121094 491.222656 66.757812 496.890625 70.625 C 498.738281 71.894531 501.128906 72.484375 502.160156 74.378906 C 498.394531 73.894531 495.234375 71.511719 491.707031 69.992188 C 483.054688 66.296875 474.703125 60.882812 465.480469 54.671875 C 463.523438 53.34375 461.554688 51.875 460.433594 52.933594 C 458.238281 55.019531 465.984375 61.816406 468.421875 64.117188 C 478.472656 73.660156 490.804688 83.445312 501.144531 88.320312 C 497.617188 90.902344 492.503906 87.535156 488.886719 85.542969 C 478.847656 80.042969 468.6875 72.863281 458.109375 64.097656 C 455.007812 61.542969 452.648438 58.332031 449.484375 58.101562 C 448.046875 63.226562 453.8125 68.828125 458.390625 74.097656 C 462.003906 78.246094 466.746094 82.554688 470.460938 86.082031 C 473.550781 89.019531 477.488281 90.820312 480.828125 93.433594 C 483.992188 95.902344 486.800781 98.289062 489.9375 100.203125 C 491.480469 101.140625 493.058594 102.300781 494.5625 103.347656 C 495.761719 104.191406 498.144531 105 497.472656 107.023438 C 493.351562 106.507812 489.304688 103.882812 485.125 101.441406 C 467.816406 91.304688 439.808594 66.484375 430.757812 48.027344 C 443.089844 44.1875 455.996094 40.410156 469.691406 37.671875 Z M 250.539062 399.628906 C 233.980469 385.429688 210.226562 365.734375 195.359375 350.304688 C 189.355469 344.085938 182.308594 339.164062 176.25 332.894531 C 170.191406 326.625 163.421875 321.039062 157.59375 314.390625 C 167.433594 310.851562 177.230469 305.402344 187.066406 301.800781 C 196.082031 310.324219 264.027344 368.386719 260.53125 372.636719 C 256.527344 369.707031 252.195312 366.6875 248.238281 363.46875 C 243.042969 359.222656 201.496094 324.308594 199.003906 325.203125 C 197.46875 331.824219 244.492188 372.667969 250.535156 378.390625 C 251.820312 379.605469 254.875 381.191406 253.339844 383.464844 C 235.992188 371.320312 213.769531 351.972656 196.5625 338.085938 C 194.933594 336.777344 193.144531 334.640625 190.851562 335.125 C 190.144531 338.121094 193.460938 340.347656 195.441406 342.5 C 197.628906 344.875 200.011719 347.511719 202.214844 349.800781 C 219.171875 367.445312 233.953125 379.828125 252.152344 396.003906 C 251.640625 397.132812 251.570312 399 250.539062 399.628906 Z M 427.578125 237.855469 L 291.390625 380.804688 C 252.046875 344.421875 210.59375 307.554688 170.566406 271.660156 C 213.761719 223.542969 256.773438 178.742188 300.460938 131.957031 C 318.863281 112.234375 336.699219 92.394531 359.589844 77.113281 C 369.375 70.585938 409.128906 51.9375 424.253906 49.453125 C 432.597656 71.363281 456.167969 91.542969 474.300781 105.195312 C 479.042969 108.761719 484.566406 111.917969 489.753906 115.207031 C 491.609375 116.382812 494.390625 118.015625 494.855469 118.808594 C 495.300781 119.597656 486.863281 148.714844 485.957031 151.402344 C 482.367188 161.945312 477.671875 172.988281 471.433594 183.851562 C 457.101562 208.832031 447.890625 216.542969 427.578125 237.855469 Z M 289.488281 492.742188 C 288.761719 492.488281 289.628906 488.925781 289.671875 488.492188 C 289.945312 486.257812 290.375 484.171875 290.730469 481.585938 C 291.097656 478.867188 290.78125 474.601562 292.035156 472.484375 C 293.808594 469.46875 297.273438 466.605469 299.75 463.984375 C 309.96875 453.152344 320.304688 442.21875 330.339844 430.597656 C 332.953125 427.570312 338.949219 421.496094 337.359375 419.605469 C 335.234375 417.082031 328.90625 424.226562 326.457031 426.339844 C 315.242188 436.046875 305.011719 445.058594 294.191406 455.71875 C 293.46875 455.570312 295.753906 439.203125 296.191406 438.464844 C 297.875 435.5625 301.839844 432.476562 304.675781 429.472656 C 318.703125 414.601562 331.898438 400.75 345.894531 385.453125 C 349.9375 381.039062 359.621094 371.34375 356.324219 367.964844 C 353.027344 364.589844 345.234375 372.894531 341.867188 375.894531 C 327.039062 389.148438 313.601562 402.929688 299.164062 416.96875 C 298.085938 416.542969 299.003906 413.953125 299.179688 412.433594 C 299.382812 410.710938 299.160156 408.441406 299.816406 407.269531 L 370.421875 331.78125 C 370.628906 331.539062 370.832031 331.300781 371.039062 331.453125 C 371.148438 331.597656 371.058594 331.761719 371.222656 331.914062 C 370.34375 345.410156 370.574219 364.925781 367.101562 377.699219 C 361.59375 402.441406 351.3125 423.898438 330.359375 448.3125 C 320.9375 459.300781 301.152344 481.644531 289.488281 492.742188 Z M 289.488281 492.742188 " fill-opacity="1" fill-rule="evenodd"/><path fill="#ffffff" d="M 452.515625 188.785156 C 456.210938 192.046875 459.96875 186.25 462.789062 182.082031 C 466.324219 176.855469 472.867188 164.734375 474.929688 159.230469 C 476.03125 156.296875 483.175781 132.957031 479.820312 128.613281 C 477.039062 139.019531 448.503906 185.25 452.515625 188.785156 Z M 452.515625 188.785156 " fill-opacity="1" fill-rule="evenodd"/><path fill="#ffffff" d="M 360.015625 92.109375 C 362.308594 93.777344 368.339844 89.347656 371.449219 87.402344 C 375.753906 84.695312 378.480469 82.71875 382.804688 80.191406 C 388.882812 76.648438 393.808594 74.957031 399.910156 72.046875 C 402.355469 70.875 405.691406 69.171875 403.691406 67.714844 C 401.613281 66.207031 395.03125 68.761719 392.183594 69.617188 C 385.277344 71.679688 377.445312 74.726562 370.554688 78.367188 C 366.941406 80.269531 354.453125 88.035156 360.015625 92.109375 Z M 360.015625 92.109375 " fill-opacity="1" fill-rule="evenodd"/><path fill="#ffffff" d="M 414.652344 143.949219 C 419.164062 146.292969 422.417969 139.75 420.550781 137.0625 C 420.15625 136.5 418.632812 135.496094 418.472656 135.40625 C 416.75 134.480469 415.589844 134.953125 414.878906 135.355469 C 410.605469 137.742188 411.523438 142.335938 414.652344 143.949219 Z M 414.652344 143.949219 " fill-opacity="1" fill-rule="evenodd"/><path fill="#ffffff" d="M 388.269531 123.316406 C 389.59375 121.433594 389.585938 119.019531 386.6875 117.273438 C 385.109375 116.300781 383.519531 116.527344 382.769531 116.910156 C 375.480469 120.734375 384.039062 129.324219 388.269531 123.316406 Z M 388.269531 123.316406 " fill-opacity="1" fill-rule="evenodd"/><path fill="#ffffff" d="M 429.34375 171.183594 C 432.054688 177.367188 440.941406 170.128906 435.460938 166.316406 C 431.507812 163.574219 428.015625 168.125 429.34375 171.183594 Z M 429.34375 171.183594 " fill-opacity="1" fill-rule="evenodd"/><path fill="#ffffff" d="M 419.453125 212.25 C 427.597656 195.980469 426.957031 179.757812 421.503906 164.691406 C 418.875 157.417969 413.742188 147.65625 405.65625 141.242188 C 388.378906 127.515625 365.917969 124.019531 345.066406 131.136719 C 337.671875 133.648438 329.816406 138.683594 323.011719 146.460938 C 310.015625 161.304688 307.863281 177.523438 309.960938 191.828125 C 312.101562 206.460938 319.476562 222.945312 336.980469 234.644531 C 365.578125 253.730469 404.382812 242.3125 419.453125 212.25 Z M 397.007812 192.589844 C 397.5 192.769531 398.285156 193.179688 398.605469 194.101562 C 396.960938 196.109375 394.136719 196.617188 391.984375 197.261719 C 385.210938 199.289062 378.429688 199.367188 371.296875 200.515625 C 364.917969 201.558594 357.464844 202.203125 350.425781 202.683594 C 348.238281 202.839844 345.25 203.0625 343.523438 201.949219 C 338.753906 198.871094 338.785156 191.945312 344.421875 189.421875 C 347.910156 187.859375 353.289062 188.550781 357.519531 188.734375 C 362.191406 188.925781 366.121094 188.886719 370.660156 189.28125 C 380.199219 190.125 389.015625 189.660156 397.007812 192.589844 Z M 353.085938 175.742188 C 350.460938 176.167969 347.621094 177.847656 344.960938 175.976562 C 340.28125 172.671875 342.691406 166.015625 347.628906 165.429688 C 349 165.261719 351.378906 166.191406 352.8125 166.371094 C 364.570312 167.914062 378.140625 166.460938 389.621094 169.84375 C 389.730469 169.988281 389.628906 170.140625 389.792969 170.292969 C 383.9375 173.554688 376.421875 173.230469 368.972656 174.023438 C 363.796875 174.574219 358.308594 174.871094 353.085938 175.742188 Z M 365.738281 234.742188 C 355.433594 234.011719 342.871094 230.125 333.304688 221.15625 C 313.449219 202.527344 310.449219 173.953125 326.945312 152.914062 C 332.828125 145.414062 340.890625 139.769531 348.972656 136.636719 C 371.890625 127.765625 397.511719 139.710938 410.425781 159.695312 C 391.976562 137.574219 355.300781 133.285156 335.65625 156.871094 C 321.199219 174.222656 322.640625 198.214844 338.289062 214.914062 C 347.355469 224.601562 358.257812 229.1875 368.113281 230.605469 C 378.214844 232.070312 387.605469 230.640625 397.34375 225.691406 C 386.855469 233.121094 376.71875 235.515625 365.738281 234.742188 Z M 365.738281 234.742188 " fill-opacity="1" fill-rule="evenodd"/><path fill="#ffffff" d="M 445.332031 199.933594 C 442.339844 198.199219 436.964844 205.207031 439.296875 207.289062 C 441.617188 209.347656 449.757812 202.480469 445.332031 199.933594 Z M 445.332031 199.933594 " fill-opacity="1" fill-rule="evenodd"/><path fill="#ffffff" d="M 433.808594 195.417969 C 428.441406 193.871094 426.644531 200.984375 430.585938 203.324219 C 434.851562 205.847656 439.691406 197.839844 433.808594 195.417969 Z M 433.808594 195.417969 " fill-opacity="1" fill-rule="evenodd"/><path fill="#ffffff" d="M 343.988281 126.476562 C 348.21875 129.605469 355.710938 121.46875 349.207031 117.738281 C 346.773438 116.328125 343.222656 117.667969 341.953125 120.914062 C 341.398438 122.347656 342.410156 125.296875 343.988281 126.476562 Z M 343.988281 126.476562 " fill-opacity="1" fill-rule="evenodd"/><path fill="#ffffff" d="M 397.824219 253.183594 C 399.4375 254.707031 401.660156 254.265625 403.445312 252.703125 C 409.570312 247.28125 415.277344 237.9375 420.015625 231.914062 C 425.523438 230.875 426.996094 224.46875 422.53125 221.527344 C 417.519531 218.222656 411.097656 225.96875 415.917969 230.476562 C 412.679688 233.800781 409.527344 236.074219 405.867188 239.515625 C 402.0625 243.085938 394.113281 249.640625 397.824219 253.183594 Z M 397.824219 253.183594 " fill-opacity="1" fill-rule="evenodd"/><path fill="#ffffff" d="M 318.269531 139.253906 C 313.082031 134.851562 307.621094 144.105469 312.253906 147.238281 C 316.878906 150.367188 322.535156 142.867188 318.269531 139.253906 Z M 318.269531 139.253906 " fill-opacity="1" fill-rule="evenodd"/><path fill="#ffffff" d="M 389.378906 247.332031 C 384.75 244.425781 380.03125 250.714844 382.546875 254.242188 C 387.050781 260.550781 396.730469 251.949219 389.378906 247.332031 Z M 389.378906 247.332031 " fill-opacity="1" fill-rule="evenodd"/><path fill="#ffffff" d="M 300.953125 172.089844 C 298.632812 170.621094 296.558594 171.074219 295.042969 173.207031 C 292.136719 177.3125 298.289062 185.75 302.570312 179.707031 C 304.367188 177.167969 302.902344 173.335938 300.953125 172.089844 Z M 300.953125 172.089844 " fill-opacity="1" fill-rule="evenodd"/><path fill="#ffffff" d="M 393.066406 262.417969 C 392.902344 262.261719 392.992188 262.101562 392.894531 261.945312 C 392.636719 261.824219 392.371094 261.847656 392.125 262.125 C 363.230469 282.894531 333.976562 315.710938 309.46875 341.6875 C 305.882812 345.484375 301.222656 350.101562 297.1875 354.375 C 292.59375 359.242188 288.054688 362.613281 291.769531 366.878906 C 295.644531 371.320312 300.300781 365.363281 304.394531 360.585938 C 330.902344 329.660156 371.382812 292.3125 393.066406 262.417969 Z M 393.066406 262.417969 " fill-opacity="1" fill-rule="evenodd"/><path fill="#ffffff" d="M 361.195312 250.808594 C 357.605469 248.117188 351.777344 252.785156 354.179688 256.328125 C 358.195312 262.257812 366.535156 254.8125 361.195312 250.808594 Z M 361.195312 250.808594 " fill-opacity="1" fill-rule="evenodd"/><path fill="#ffffff" d="M 303.398438 202.652344 C 299.5 199.714844 294.941406 204.699219 297.144531 207.988281 C 301.0625 213.824219 308.351562 206.382812 303.398438 202.652344 Z M 303.398438 202.652344 " fill-opacity="1" fill-rule="evenodd"/><path fill="#ffffff" d="M 320.910156 230.101562 C 313.574219 234.042969 320.570312 246.757812 327.257812 238.519531 C 329.226562 235.007812 325.238281 227.785156 320.910156 230.101562 Z M 320.910156 230.101562 " fill-opacity="1" fill-rule="evenodd"/><path fill="#ffffff" d="M 349.050781 279.121094 C 350.179688 277.800781 353.136719 274.683594 351.089844 273.757812 C 350.816406 273.628906 350.566406 273.65625 350.308594 273.929688 C 348.082031 275.246094 343.738281 279.933594 340.574219 282.960938 C 320.890625 301.882812 302.289062 322.253906 282.9375 342.765625 C 279.558594 346.34375 275.445312 349.875 278.234375 352.898438 C 281.515625 356.464844 284.8125 352.1875 288.71875 347.910156 C 309.796875 324.871094 329.699219 301.921875 349.050781 279.121094 Z M 349.050781 279.121094 " fill-opacity="1" fill-rule="evenodd"/><path fill="#ffffff" d="M 229.378906 230.890625 C 230.964844 228.925781 233.960938 225.929688 231.859375 224.730469 C 231.546875 224.601562 231.230469 224.613281 230.929688 224.757812 C 227.035156 227.707031 223.792969 232.015625 219.835938 235.859375 C 212.445312 243.0625 205.289062 250.097656 198.300781 258.054688 C 195.574219 261.136719 189.464844 266.980469 193.789062 269.578125 C 196.675781 271.3125 201.929688 264.417969 204.953125 260.972656 C 213.898438 250.75 221.09375 241.199219 229.378906 230.890625 Z M 229.378906 230.890625 " fill-opacity="1" fill-rule="evenodd"/><path fill="#ffffff" d="M 151.03125 410.8125 C 154.066406 410.714844 189.242188 380.320312 191.15625 377.621094 C 192.558594 375.609375 192.402344 372.414062 189.6875 370.472656 C 185.230469 367.257812 180.015625 374.183594 176.65625 378.503906 C 169.355469 387.855469 160.574219 396.402344 153.6875 405.421875 C 152.457031 407.035156 150.527344 408.796875 151.03125 410.8125 Z M 151.03125 410.8125 " fill-opacity="1" fill-rule="evenodd"/><path fill="#ffffff" d="M 152.617188 374.367188 C 157.824219 370.328125 161.886719 367.597656 166.992188 363.316406 C 168.964844 361.660156 172.898438 358.496094 172.410156 356.289062 C 171.289062 351.261719 163.664062 354.933594 161.335938 357.078125 C 155.386719 362.53125 145.535156 372.644531 145.359375 377.542969 C 147.804688 378.570312 150.328125 376.136719 152.617188 374.367188 Z M 152.617188 374.367188 " fill-opacity="1" fill-rule="evenodd"/><path fill="#ffffff" d="M 205.171875 430.023438 C 207.644531 430.566406 210.105469 428.089844 212.238281 425.742188 C 217.808594 419.636719 224.257812 411.652344 224.023438 406.820312 C 223.855469 403.222656 220.117188 400.273438 217.015625 401.707031 C 212.417969 403.808594 213.246094 409.015625 212.308594 412.144531 C 210.398438 418.53125 204.363281 424.691406 205.171875 430.023438 Z M 205.171875 430.023438 " fill-opacity="1" fill-rule="evenodd"/><path fill="#ffffff" d="M 178.324219 425.332031 C 181.601562 428.136719 202.144531 403.070312 204.621094 400.035156 C 208.34375 395.480469 210.878906 390.917969 205.667969 387.976562 C 200.003906 384.773438 196.625 393.480469 194.398438 397.671875 C 192.429688 401.375 176.488281 423.761719 178.324219 425.332031 Z M 178.324219 425.332031 " fill-opacity="1" fill-rule="evenodd"/><path fill="#ffffff" d="M 213.824219 458.308594 C 228.34375 441.410156 237.859375 420.53125 231.417969 413.792969 C 231.105469 413.664062 230.789062 413.675781 230.484375 413.816406 C 227.222656 423.230469 222.878906 434.855469 205.203125 452.519531 C 197.546875 460.132812 189.007812 467.203125 180.878906 470.5625 C 185 464.84375 188.566406 458.640625 190.683594 452.773438 C 191.253906 451.191406 192.652344 447.675781 191.125 446.832031 C 189.492188 445.90625 187.246094 449.65625 186.261719 451.03125 C 185.234375 452.445312 183.25 455.289062 181.902344 456.9375 C 174.785156 465.613281 167.230469 470.503906 159.621094 475.402344 C 154.957031 478.40625 151.855469 481.71875 148.289062 483.230469 C 145.925781 484.230469 142.660156 484.480469 139.910156 485.347656 C 136.859375 486.316406 134.234375 487.917969 131.554688 487.769531 C 139.292969 479.375 146.082031 471.375 150.195312 462.867188 C 153.242188 456.585938 155.617188 450.46875 157.628906 444.367188 C 158.214844 442.589844 159.683594 439.964844 157.613281 438.277344 C 154.191406 440.875 152.464844 445.214844 149.785156 448.816406 C 134.859375 468.933594 119.988281 481.554688 96.589844 489.105469 C 88.921875 491.585938 81.28125 493.820312 74.234375 494.128906 C 72.921875 484.203125 75.398438 475.082031 77.28125 464.511719 C 78.144531 459.6875 79.988281 454.574219 82.789062 449.664062 C 85.660156 444.660156 88.625 439.097656 92.503906 434.550781 C 96.609375 429.742188 102.425781 425.144531 102.101562 420.824219 C 102.050781 420.242188 101.933594 419.410156 101.730469 418.640625 C 98.316406 417.769531 95.027344 420.097656 91.824219 421.746094 C 88.496094 423.464844 84.890625 425.515625 81.847656 428.136719 C 81.816406 421.320312 85.253906 415.035156 88.757812 407.617188 C 91.070312 402.71875 93.269531 397.054688 96.300781 393.1875 C 101.007812 387.175781 107.636719 381.5 112.527344 376.316406 C 114.160156 374.585938 116.414062 372.984375 116.746094 370.5625 C 112.65625 370.179688 108.847656 373.128906 105.003906 375.285156 C 101.117188 377.441406 97 379.753906 93.316406 381.871094 C 95.058594 365.476562 128.527344 343.113281 142.949219 336.988281 C 143.628906 336.703125 144.765625 336.5 145.09375 335.675781 C 141.496094 334.710938 137.640625 336.421875 134.21875 337.558594 C 123.566406 341.105469 111.523438 343.882812 101.664062 351.78125 C 94.285156 357.703125 86.976562 366.28125 83.859375 373.550781 C 81.332031 379.4375 81.160156 384.417969 80.433594 390.050781 C 80.199219 391.804688 80.238281 394.269531 79.65625 395.691406 C 78.953125 397.441406 77.5625 399.09375 76.679688 400.789062 C 71.914062 409.917969 69.433594 417.390625 68.359375 426.335938 C 67.742188 431.4375 66.320312 436.042969 71.113281 440.167969 C 63.308594 450.707031 58.941406 461.59375 55.820312 473.109375 C 54.390625 478.328125 53.097656 483.710938 52.542969 489.445312 C 52.03125 494.785156 51.03125 501.125 52.074219 505.710938 C 52.304688 506.691406 53.152344 507.835938 53.585938 509.253906 C 54.265625 511.4375 54.007812 513.214844 55.46875 514.675781 C 60.476562 519.683594 70.273438 514.691406 74.964844 513.640625 C 77.164062 513.144531 79.65625 513.5625 81.996094 513.28125 C 89.199219 512.402344 96.175781 510.773438 103.078125 507.988281 C 108.804688 509.703125 114.445312 508.460938 120.089844 507.019531 C 125.816406 509.929688 131.140625 506.601562 136.851562 503.40625 C 146.726562 497.886719 158.652344 492.925781 167.714844 484.84375 C 172.445312 488.035156 177.171875 484.59375 182.332031 482.546875 C 190.011719 479.507812 203.691406 470.089844 213.824219 458.308594 Z M 213.824219 458.308594 " fill-opacity="1" fill-rule="evenodd"/><path fill="#ffffff" d="M 144.09375 355.089844 C 149.019531 352.617188 154.765625 352.546875 158.226562 346.546875 C 157.960938 344.382812 156.007812 343.882812 154.5625 344 C 152.046875 344.195312 148.828125 346.386719 145.164062 348.792969 C 140.476562 351.882812 135.5625 355.582031 134.84375 359.097656 C 137.859375 358.667969 140.882812 356.683594 144.09375 355.089844 Z M 144.09375 355.089844 " fill-opacity="1" fill-rule="evenodd"/><path fill="#ffffff" d="M 257.59375 470.363281 C 261.824219 472.382812 266.648438 467.613281 265.527344 463.570312 C 265.195312 462.414062 264.414062 461.390625 263.246094 460.515625 C 256.535156 455.457031 250.121094 466.8125 257.59375 470.363281 Z M 257.59375 470.363281 " fill-opacity="1" fill-rule="evenodd"/><path fill="#ffffff" d="M 101.824219 314.59375 C 95.042969 310.308594 87.632812 320.976562 92.175781 326.433594 C 98.167969 333.652344 110.519531 320.074219 101.824219 314.59375 Z M 101.824219 314.59375 " fill-opacity="1" fill-rule="evenodd"/><path fill="#ffffff" d="M 230.914062 466.453125 C 228.164062 464.71875 224.996094 465.085938 222.816406 467.3125 C 216.238281 474.066406 226.648438 482.816406 232.460938 476.71875 C 235.082031 473.984375 235.722656 469.488281 230.914062 466.453125 Z M 230.914062 466.453125 " fill-opacity="1" fill-rule="evenodd"/><path fill="#ffffff" d="M 73.433594 353.691406 C 71.601562 352.625 69.53125 352.4375 67.996094 354.632812 C 66.808594 356.332031 68.378906 359.683594 69.570312 360.6875 C 73.511719 363.972656 79.121094 357.042969 73.433594 353.691406 Z M 73.433594 353.691406 " fill-opacity="1" fill-rule="evenodd"/><path fill="#ffffff" d="M 229.117188 506.652344 C 225.546875 504.371094 216.8125 506.195312 217.558594 512.144531 C 217.734375 513.527344 219.007812 514.378906 219.855469 515.835938 C 220.847656 517.535156 220.820312 518.457031 221.980469 519.363281 C 224.398438 521.25 227.9375 520.746094 230.097656 518.808594 C 234.039062 515.304688 233.90625 509.734375 229.117188 506.652344 Z M 229.117188 506.652344 " fill-opacity="1" fill-rule="evenodd"/><path fill="#ffffff" d="M 61.9375 382.933594 C 60.667969 381.921875 55.589844 379.410156 54.492188 379.242188 C 50.800781 378.679688 46.21875 383.453125 46.152344 388.082031 C 46.117188 390.84375 48.039062 395.042969 50.792969 397.3125 C 59.285156 404.300781 71.042969 390.226562 61.9375 382.933594 Z M 61.9375 382.933594 " fill-opacity="1" fill-rule="evenodd"/><path fill="#ffffff" d="M 173.410156 509.054688 C 170.046875 506.945312 165.804688 507.800781 163.125 509.988281 C 154.53125 516.984375 163.804688 528.984375 172.019531 525.667969 C 179.292969 522.714844 179.125 512.636719 173.410156 509.054688 Z M 173.410156 509.054688 " fill-opacity="1" fill-rule="evenodd"/><path fill="#ffffff" d="M 129.328125 524.238281 C 124.320312 521.28125 118.101562 527.371094 120.808594 532.308594 C 125.949219 541.648438 138.789062 529.847656 129.328125 524.238281 Z M 129.328125 524.238281 " fill-opacity="1" fill-rule="evenodd"/></svg>