<svg xmlns="http://www.w3.org/2000/svg" xmlns:xlink="http://www.w3.org/1999/xlink" width="750" zoomAndPan="magnify" viewBox="0 0 562.5 562.499982" height="750" preserveAspectRatio="xMidYMid meet" version="1.0"><defs><clipPath id="9e9ba7486a"><path d="M 85.515625 12 L 476 12 L 476 552 L 85.515625 552 Z M 85.515625 12 " clip-rule="nonzero"/></clipPath></defs><path fill="#ffffff" d="M 326.453125 293.035156 C 327.890625 295.0625 317.496094 305.027344 325.480469 309.4375 L 333.453125 299.3125 L 345.800781 303.207031 L 347.953125 296.292969 L 338.160156 289.929688 C 347.902344 280.085938 344.695312 268.675781 334.253906 282.71875 L 332.261719 272.421875 L 326.414062 273.429688 L 326.441406 282.703125 L 316.722656 282.730469 C 315.371094 289.742188 320.753906 292.140625 326.441406 293.046875 Z M 326.453125 293.035156 " fill-opacity="1" fill-rule="nonzero"/><path fill="#ffffff" d="M 361.132812 283.96875 C 362.570312 285.996094 352.179688 295.960938 360.164062 300.371094 L 368.136719 290.246094 L 380.484375 294.140625 L 382.632812 287.226562 L 372.839844 280.863281 C 382.582031 271.019531 379.378906 259.609375 368.933594 273.648438 L 366.945312 263.355469 L 361.097656 264.363281 L 361.121094 273.636719 L 351.402344 273.664062 C 350.050781 280.675781 355.433594 283.074219 361.121094 283.980469 Z M 361.132812 283.96875 " fill-opacity="1" fill-rule="nonzero"/><path fill="#ffffff" d="M 393.320312 274.535156 C 394.757812 276.5625 384.363281 286.523438 392.351562 290.9375 L 400.324219 280.8125 L 412.671875 284.707031 L 414.820312 277.789062 L 405.027344 271.425781 C 414.769531 261.585938 411.566406 250.171875 401.121094 264.214844 L 399.132812 253.921875 L 393.285156 254.925781 L 393.308594 264.203125 L 383.589844 264.226562 C 382.238281 271.242188 387.621094 273.636719 393.308594 274.546875 Z M 393.320312 274.535156 " fill-opacity="1" fill-rule="nonzero"/><g clip-path="url(#9e9ba7486a)"><path fill="#ffffff" d="M 474.574219 263.808594 C 468.960938 242.46875 464.28125 220.886719 459 199.460938 C 456.6875 190.109375 453.875 180.882812 451.125 171.65625 C 449.476562 166.167969 446.296875 161.730469 441.726562 158.09375 C 430.3125 148.96875 419.230469 139.421875 407.730469 130.402344 C 399.699219 124.101562 391.578125 118.105469 381.6875 114.371094 C 374.277344 111.582031 367.867188 106.117188 361.046875 101.777344 C 358.789062 100.34375 357.695312 98.488281 357.351562 96.164062 C 357.25 89.050781 359.058594 82.40625 364.535156 76.410156 C 365.925781 74.898438 367.335938 73.386719 368.726562 71.839844 C 376.144531 63.558594 378.320312 51.816406 374.511719 41.371094 L 373.8125 39.445312 C 368.40625 24.652344 352.535156 16.335938 337.375 20.636719 C 337.261719 20.660156 337.164062 20.695312 337.054688 20.722656 C 336.183594 20.964844 335.324219 21.273438 334.488281 21.617188 C 332.976562 22.246094 331.539062 23.03125 330.285156 24.074219 C 323.441406 29.800781 318.75 37.734375 317.128906 46.542969 C 316.230469 51.410156 317.519531 61.570312 318.417969 66.460938 C 318.675781 67.847656 319.144531 69.1875 319.816406 70.425781 L 320.691406 72.035156 C 321.6875 73.484375 324.621094 74.714844 326.023438 74.210938 C 327.449219 73.695312 328.554688 70.992188 328.859375 69.089844 C 329.179688 67.035156 328.246094 64.8125 328.160156 62.652344 C 328.011719 59.332031 327.078125 56.1875 327.078125 52.648438 C 325.320312 41.875 332.535156 29.40625 346.613281 29.40625 C 350.445312 29.40625 353.6875 30.328125 356.355469 31.875 C 359.820312 33.449219 362.375 36.054688 364.132812 39.125 C 366.796875 43.339844 367.769531 48.597656 367.042969 53.597656 C 366.933594 57.320312 365.53125 60.058594 363.703125 62.304688 C 362.730469 63.707031 361.550781 64.960938 360.1875 66.042969 C 352.496094 73.65625 348.257812 82.492188 347.65625 93.191406 C 346.574219 97.847656 343.898438 101.546875 339.757812 104.949219 C 331.832031 111.460938 324.621094 118.78125 317.3125 125.96875 C 314.253906 128.980469 311.058594 130.773438 306.636719 131.496094 C 302.226562 132.222656 298.121094 134.777344 292.359375 137.148438 C 286.722656 132.8125 280.617188 128.058594 274.460938 123.375 C 267.066406 117.75 259.523438 112.773438 250.554688 109.382812 C 240.785156 105.699219 231.980469 99.496094 222.261719 94.125 C 221.179688 85.195312 222.457031 76.902344 229.152344 69.566406 C 230.542969 68.054688 231.953125 66.546875 233.34375 64.996094 C 240.761719 56.71875 242.9375 44.972656 239.128906 34.53125 L 238.429688 32.601562 C 233.023438 17.808594 217.148438 9.492188 201.988281 13.792969 C 201.878906 13.816406 201.78125 13.851562 201.671875 13.878906 C 200.796875 14.125 199.9375 14.429688 199.101562 14.773438 C 197.59375 15.402344 196.15625 16.1875 194.902344 17.230469 C 188.058594 22.957031 183.367188 30.894531 181.742188 39.703125 C 180.847656 44.566406 182.136719 54.726562 183.035156 59.617188 C 183.292969 61.003906 183.757812 62.34375 184.433594 63.585938 L 185.308594 65.195312 C 186.300781 66.644531 189.238281 67.871094 190.636719 67.367188 C 192.0625 66.851562 193.167969 64.148438 193.476562 62.246094 C 193.796875 60.195312 192.863281 57.96875 192.777344 55.808594 C 192.628906 52.492188 191.695312 49.34375 191.695312 45.808594 C 189.9375 35.035156 197.148438 22.5625 211.230469 22.5625 C 215.0625 22.5625 218.304688 23.484375 220.972656 25.03125 C 224.433594 26.605469 226.992188 29.210938 228.746094 32.28125 C 231.414062 36.496094 232.382812 41.753906 231.660156 46.753906 C 231.546875 50.476562 230.148438 53.214844 228.316406 55.464844 C 227.347656 56.863281 226.167969 58.117188 224.804688 59.199219 C 216.4375 67.480469 212.089844 77.148438 212.148438 89.164062 C 212.164062 92.035156 209.863281 95.441406 207.703125 97.710938 C 203.441406 102.195312 198.476562 106.003906 193.882812 110.183594 C 186.351562 117.050781 178.511719 123.339844 170.046875 129.210938 C 157.394531 137.996094 146.839844 149.753906 135.121094 159.925781 C 124.605469 169.066406 117.171875 179.863281 112.074219 192.027344 C 111.054688 229.804688 102.296875 268 85.929688 302.375 C 90.488281 315.113281 100.746094 323.710938 110.882812 332.117188 C 115.6875 336.097656 118.265625 342.152344 117.886719 348.382812 C 115.785156 382.890625 114.496094 417.449219 112.910156 451.996094 C 112.050781 470.632812 111.164062 489.257812 110.316406 507.894531 C 110.058594 513.484375 109.753906 519.074219 109.738281 524.675781 C 109.714844 531.921875 109.800781 532.023438 116.988281 534.121094 C 143.585938 541.886719 170.796875 543.851562 198.28125 541.789062 C 212.199219 540.746094 226.03125 538.484375 239.535156 536.824219 C 243.601562 539.0625 246.722656 541.554688 250.269531 542.601562 C 281.179688 551.777344 312.792969 552.515625 344.574219 549.441406 C 369.167969 547.070312 393.1875 541.679688 415.59375 531.050781 C 426.75 525.757812 437.019531 518.582031 447.648438 512.179688 C 454.527344 508.042969 456.824219 502.121094 455.71875 494.023438 C 453.507812 477.695312 451.613281 461.320312 450.289062 444.894531 C 447.007812 404.304688 444.242188 363.664062 440.964844 323.074219 C 440.421875 316.378906 442.328125 312.128906 447.976562 308.429688 C 458.886719 301.304688 466.40625 290.984375 472.769531 279.769531 C 475.667969 274.65625 476.160156 269.804688 474.589844 263.808594 Z M 111.828125 255.800781 L 121.546875 255.773438 L 121.523438 246.5 L 127.371094 245.492188 L 129.359375 255.789062 C 139.800781 241.746094 143.007812 253.160156 133.265625 263 L 143.058594 269.363281 L 140.90625 276.28125 L 128.5625 272.386719 L 120.589844 282.507812 C 112.601562 278.097656 122.996094 268.132812 121.558594 266.105469 C 115.871094 265.199219 110.488281 262.816406 111.839844 255.789062 Z M 137.628906 316.167969 C 128.230469 311.035156 118.070312 307.3125 108.242188 302.976562 C 108.585938 302.398438 108.929688 301.820312 109.273438 301.242188 C 130.085938 308.148438 150.722656 315.335938 164.9375 333.898438 C 155.859375 327.925781 147.125 321.355469 137.617188 316.167969 Z M 172.160156 215.246094 C 167.75 206.992188 164.691406 197.507812 156.019531 192.714844 C 148.09375 188.339844 139.667969 184.863281 132.199219 181.351562 C 151.078125 179.863281 173.144531 196.929688 172.160156 215.246094 Z M 176.3125 326.058594 C 171.878906 297.730469 174.101562 269.140625 174.347656 240.601562 C 176.472656 269.019531 178.179688 297.433594 176.3125 326.058594 Z M 373.984375 132.074219 C 369.671875 137.984375 363.628906 140.601562 355.839844 140.058594 C 361.378906 136.695312 366.933594 133.316406 372.472656 129.949219 C 372.976562 130.660156 373.480469 131.375 373.984375 132.085938 Z M 348.984375 122.566406 C 353.761719 119.125 358.726562 121.59375 363.835938 125.144531 C 355.1875 131.925781 346.515625 136.324219 333.921875 137.125 C 339.820312 131.300781 343.898438 126.238281 348.984375 122.566406 Z M 216.242188 119.347656 C 220.726562 116.175781 224.621094 119.949219 230.183594 122.308594 C 221.523438 128.488281 214.128906 131.582031 203.597656 131.839844 C 208.5625 126.816406 211.929688 122.40625 216.242188 119.347656 Z M 240.789062 128.351562 C 236.414062 134.875 230.480469 135.539062 224.621094 136.324219 C 229.238281 132.984375 233.28125 128.449219 240.789062 128.351562 Z M 466.921875 272.371094 C 461.074219 284.472656 453.433594 295.125 440.410156 303.453125 C 439.773438 295.554688 439.058594 289.191406 438.777344 282.816406 C 437.90625 263.246094 437.277344 243.660156 436.382812 224.105469 C 436.210938 220.332031 437.105469 215.871094 432.523438 213.441406 C 427.953125 215.136719 428.714844 218.980469 428.738281 222.136719 C 428.863281 234.890625 428.925781 247.640625 429.550781 260.371094 C 431.035156 290.492188 432.242188 320.640625 434.636719 350.691406 C 438.382812 397.78125 442.855469 444.808594 447.476562 491.8125 C 448.152344 498.65625 446.308594 502.757812 441 506.703125 C 422.191406 520.683594 401.023438 529.367188 378.503906 534.945312 C 338.601562 544.824219 298.503906 545.386719 258.304688 536.703125 C 255.945312 536.1875 253.648438 535.316406 250.601562 534.394531 C 252.640625 473.101562 254.683594 412.070312 256.746094 349.980469 C 260.085938 351.242188 262.324219 352.066406 264.535156 352.925781 C 268.304688 354.390625 271.992188 356.121094 275.847656 357.265625 C 278.910156 358.171875 283.292969 360.519531 284.792969 356.183594 C 286.402344 351.539062 281.316406 351.144531 278.34375 350.136719 C 260.1875 343.945312 245.480469 332.792969 232.691406 318.824219 C 230.394531 316.316406 228.242188 313.601562 226.449219 310.703125 C 223.097656 305.285156 222.164062 299.757812 223.980469 293.148438 C 231.5625 265.578125 238.5625 237.839844 245.738281 210.160156 C 248.660156 198.871094 253.246094 188.699219 262.226562 180.589844 C 275.835938 168.304688 288.96875 155.476562 302.214844 142.789062 C 305.800781 139.347656 309.414062 138.351562 313.957031 140.796875 C 327.363281 147.996094 341.527344 152.074219 357.078125 150.109375 C 362.523438 161.265625 363.945312 172.519531 364.144531 184.042969 C 364.21875 188.367188 361.292969 190.074219 357.855469 190.984375 C 351.882812 192.542969 350.617188 196.425781 350.65625 202.136719 C 350.753906 218.601562 350.285156 235.074219 350.101562 251.550781 C 350.089844 252.714844 350.542969 253.894531 351 256.15625 C 353.640625 255.371094 355.898438 254.914062 357.976562 254.019531 C 363.960938 251.449219 369.707031 248.230469 375.851562 246.15625 C 380.925781 244.449219 382.742188 241.476562 382.546875 236.5 C 382.128906 225.320312 381.894531 214.128906 381.40625 202.949219 C 381.148438 197.125 380.496094 191.3125 379.929688 184.386719 C 375.542969 185.207031 372.621094 185.761719 369.476562 186.351562 C 367.425781 173.648438 365.46875 161.546875 363.359375 148.390625 C 374.230469 144.679688 383.257812 137.972656 388.113281 124.949219 C 403.738281 137.296875 418.25 148.78125 432.289062 159.886719 C 432.90625 175.160156 433.480469 189.421875 434.058594 203.6875 C 440.867188 191.339844 436.675781 178.316406 435.691406 165.148438 C 441.332031 166.054688 442.449219 170.171875 443.496094 173.894531 C 447.253906 187.359375 450.925781 200.859375 454.304688 214.421875 C 458.582031 231.609375 462.574219 248.882812 466.589844 266.132812 C 467.058594 268.160156 467.707031 270.714844 466.910156 272.359375 Z M 376.390625 189.238281 C 377.066406 199.707031 377.867188 209.140625 378.234375 218.574219 C 378.503906 225.382812 379.90625 232.839844 377.683594 238.847656 C 375.238281 245.429688 365.902344 244.265625 360.382812 248.132812 C 358.972656 249.117188 357.117188 249.472656 354.941406 250.320312 L 354.941406 196.511719 C 361.933594 194.140625 368.566406 191.890625 376.390625 189.238281 Z M 376.390625 189.238281 " fill-opacity="1" fill-rule="nonzero"/></g><path fill="#ffffff" d="M 270.1875 311.378906 C 260.789062 306.242188 250.628906 302.519531 240.800781 298.183594 C 241.144531 297.605469 241.488281 297.027344 241.832031 296.453125 C 262.644531 303.355469 283.28125 310.542969 297.496094 329.105469 C 288.417969 323.136719 279.683594 316.5625 270.171875 311.378906 Z M 270.1875 311.378906 " fill-opacity="1" fill-rule="nonzero"/><path fill="#ffffff" d="M 285.800781 209.71875 C 277.875 205.34375 269.449219 201.867188 261.980469 198.355469 C 280.863281 196.867188 302.925781 213.929688 301.941406 232.25 C 297.53125 223.992188 294.472656 214.507812 285.800781 209.71875 Z M 285.800781 209.71875 " fill-opacity="1" fill-rule="nonzero"/><path fill="#ffffff" d="M 306.09375 343.050781 C 301.660156 314.71875 303.882812 286.132812 304.128906 257.59375 C 306.253906 286.007812 307.964844 314.425781 306.09375 343.050781 Z M 306.09375 343.050781 " fill-opacity="1" fill-rule="nonzero"/></svg>